<?xml version="1.0" encoding="utf-8"?>
<!-- Generator: Adobe Illustrator 19.0.0, SVG Export Plug-In . SVG Version: 6.00 Build 0)  -->
<svg version="1.1" id="图层_1" xmlns="http://www.w3.org/2000/svg" xmlns:xlink="http://www.w3.org/1999/xlink" x="0px" y="0px"
	 viewBox="-411 413 200 200" style="enable-background:new -411 413 200 200;" xml:space="preserve">
<style type="text/css">
	.st0{fill:#272727;}
</style>
<path class="st0" d="M-242.8,413h-136.4c-7.5,0-13.6,6.1-13.6,13.6l0,0v172.7c0,7.5,6.1,13.6,13.6,13.6h136.4
	c7.5,0,13.6-6.1,13.6-13.6V426.6C-229.2,419.1-235.3,413-242.8,413L-242.8,413z M-238.3,599.4c0,2.5-2,4.5-4.5,4.5h-136.4
	c-2.5,0-4.5-2-4.5-4.5V426.6c0-2.5,2-4.5,4.5-4.5h136.4c2.5,0,4.5,2,4.5,4.5L-238.3,599.4z M-276.4,472.1
	c0.5-19.1-14.6-35.1-33.7-35.6h-0.2c-9,0-17.7,3.7-23.9,10.3c-6.5,6.7-10.1,15.7-10,25c0,3.2,0.4,6.3,1.2,9.4l-20.2,21.1l20.5,3.5
	l3.3,22.1l20.9-22c2.7,0.7,5.5,1.1,8.3,1.1c2.5,0,4.9-0.3,7.3-0.9l20.6,21.8l3.2-22.1l20.5-3.5L-278,482
	C-277,478.8-276.5,475.4-276.4,472.1z M-333.3,508.5l-1.5-10.2l-10.2-1.7l5.7-6.2c1.3,2.3,2.9,4.5,4.8,6.4c2.1,2.1,4.4,4,6.9,5.5
	L-333.3,508.5z M-328,490.3c-9.9-10.5-9.9-26.9,0-37.5c4.5-4.8,10.8-7.5,17.4-7.5c14.1,0.5,25.2,12.4,24.7,26.5
	c0.3,14.1-10.8,25.7-24.9,26.1C-317.3,497.8-323.5,495.1-328,490.3z M-277,496.2l-10.2,1.7l-1.5,10.2l-5.3-5.6
	c4.9-2.8,9-6.8,12-11.6L-277,496.2z M-265.5,558.5c0,2.5-2,4.5-4.5,4.5h-81.8c-2.5,0-4.5-2-4.5-4.5s2-4.5,4.5-4.5h81.8
	C-267.6,553.9-265.5,555.9-265.5,558.5L-265.5,558.5z M-279.2,581.2c0,2.5-2,4.5-4.5,4.5h-54.5c-2.5,0-4.5-2-4.5-4.5s2-4.5,4.5-4.5
	h54.5C-281.2,576.6-279.2,578.7-279.2,581.2L-279.2,581.2z"/>
</svg>
