<?xml version="1.0" encoding="utf-8"?>
<!-- Generator: Adobe Illustrator 19.0.0, SVG Export Plug-In . SVG Version: 6.00 Build 0)  -->
<svg version="1.1" id="图层_1" xmlns="http://www.w3.org/2000/svg" xmlns:xlink="http://www.w3.org/1999/xlink" x="0px" y="0px"
	 viewBox="-411 413 200 200" style="enable-background:new -411 413 200 200;" xml:space="preserve">
<style type="text/css">
	.st0{fill:#272727;}
</style>
<path class="st0" d="M-386,425.5h150c6.9,0,12.5,5.6,12.5,12.5v143.8c0,6.9-5.6,12.5-12.5,12.5h-150c-6.9,0-12.5-5.6-12.5-12.5V438
	C-398.5,431.1-392.9,425.5-386,425.5z M-386,444.2v131.2c0,3.5,2.8,6.2,6.2,6.2h137.5c3.5,0,6.2-2.8,6.2-6.2V444.2
	c0-3.5-2.8-6.2-6.2-6.2h-137.5C-383.2,438-386,440.8-386,444.2z"/>
<path class="st0" d="M-251.9,495c-6.4-1.4-11.9-5.4-15.2-11.1c-3.3-5.6-4.1-12.3-2.1-18.5c0.3-1.1,0-2.3-0.9-3.1
	c-5.9-5.1-12.7-9-20-11.6c-1.1-0.4-2.4-0.1-3.2,0.8c-4.6,4.9-11,7.6-17.7,7.5c-6.5,0-12.8-2.6-17.3-7.4c-0.8-1.1-2.3-1.4-3.5-0.9
	c-7.3,2.6-14.1,6.6-20,11.7c-0.9,0.7-1.3,1.9-0.9,3.1c2,6.2,1.2,12.9-2.1,18.4c-3.3,5.7-8.8,9.7-15.3,11.1c-1.1,0.2-2,1.2-2.2,2.3
	c-1.5,7.6-1.5,15.4,0,23c0.2,1.2,1.1,2.1,2.2,2.3c6.4,1.4,11.9,5.4,15.3,11c3.3,5.6,4.1,12.3,2.1,18.5c-0.3,1.1,0,2.3,0.9,3.1
	c5.9,5.1,12.7,9,20,11.6h1c0.8,0,1.6-0.3,2.2-0.9c9.1-9.6,24.3-10,33.9-0.9c0.3,0.3,0.6,0.6,0.9,0.9c0.9,1.2,2.4,1.6,3.8,0.9
	c7.4-2.5,14.3-6.4,20.3-11.5c0.9-0.7,1.3-1.9,0.9-3.1c-2.1-6.2-1.5-12.9,1.8-18.6c3.3-5.6,8.9-9.6,15.2-11c1.1-0.2,2-1.2,2.2-2.3
	c1.5-7.6,1.5-15.4,0-23C-249.9,496.2-250.8,495.3-251.9,495L-251.9,495z M-277.1,527.8c-3.3,5.4-4.2,12.7-2.6,18.8
	c-4.1,3.1-8.6,5.6-13.4,7.3c-4.8-4.6-11.2-7.2-17.9-7.3c-6.7,0.2-13,2.8-17.9,7.3c-4.8-1.7-9.4-4.2-13.4-7.3
	c1.5-6.1,0.5-13.3-2.8-18.7c-3.5-5.5-8.8-9.6-15.1-11.3c-0.8-4.8-0.8-9.8,0-14.6c6.3-1.7,11.8-5.7,15.4-11.2
	c3.3-5.4,4.2-14.4,2.6-20.5c4.1-3.1,8.6-5.6,13.4-7.3c5,4.3,11.3,6.6,17.9,6.6c6.6,0,12.9-2.3,17.9-6.6c4.8,1.8,9.4,4.2,13.4,7.3
	c-1.5,6.1-0.5,15,2.8,20.4c3.5,5.5,9,9.5,15.4,11.2c0.8,4.8,0.8,9.8,0,14.6C-268.2,518.3-273.7,522.3-277.1,527.8L-277.1,527.8z"/>
<path class="st0" d="M-311,483.9c-13.8,0-25,11.1-25,24.9c0,13.8,11.2,24.9,25,24.9c0,0,0,0,0,0c13.8,0,25-11.1,25-24.9
	c0-6.6-2.6-12.9-7.3-17.6C-298,486.5-304.4,483.9-311,483.9L-311,483.9z M-311,524.2c-8.6,0-15.6-7-15.6-15.6
	c0-8.6,7-15.6,15.6-15.6c8.6,0,15.6,7,15.6,15.6C-295.4,517.2-302.4,524.2-311,524.2L-311,524.2z"/>
</svg>
