<?xml version="1.0" encoding="UTF-8"?>
<svg width="100px" height="115px" viewBox="0 0 100 115" version="1.1" xmlns="http://www.w3.org/2000/svg" xmlns:xlink="http://www.w3.org/1999/xlink">
    <!-- Generator: Sketch 50.2 (55047) - http://www.bohemiancoding.com/sketch -->
    <title>新建文件夹</title>
    <desc>Created with Sketch.</desc>
    <defs></defs>
    <g id="dataworks" stroke="none" stroke-width="1" fill="none" fill-rule="evenodd">
        <g id="06-元数据管理-元数据采集-copy" transform="translate(-819.000000, -345.000000)">
            <g id="新建文件夹" transform="translate(820.000000, 345.000000)">
                <path d="M0.024684271,34.9868805 L0.024684271,82.7638484 C0.024684271,82.7638484 -0.475172216,89 3.02382319,89 C6.5228186,89 86,89 86,89 L86,24.3250729 L20.2188863,24.3250729 L18.2194604,20 L0.024684271,20 L0.024684271,34.9868805 Z" id="XMLID_1_" stroke="#C0C0C0" fill="#D3D3D3" fill-rule="nonzero"></path>
                <polygon id="XMLID_3_" fill="#E7E7E7" fill-rule="nonzero" points="37 0 23 57.4155653 79 68 91 10.9838473"></polygon>
                <polygon id="XMLID_5_" fill="#DDDDDD" fill-rule="nonzero" points="27 6 13 63.4155653 69 74 81 16.9838473"></polygon>
                <polygon id="XMLID_4_" fill="#F5F5F5" fill-rule="nonzero" points="32 2 18 59.4155653 74 70 86 12.9838473"></polygon>
                <path d="M89.5847751,39 L13.6228374,39 L13.6228374,81.2 C13.6228374,85.1 10.7128028,88.3 7,88.9 C7.30103806,89 7.60207612,89 7.90311419,89 L89.6851211,89 C92.0934256,89 94,87.1 94,84.7 L94,43.3 C93.899654,41 91.9930796,39 89.5847751,39 Z" id="XMLID_6_" stroke="#C7C7C7" fill="#E7E7E7" fill-rule="nonzero"></path>
                <path d="M13.0722892,58 C13.0722892,58 10,58 10,60.4004964 C10,62.8009929 12.0481928,62.9930326 13.0722892,62.9930326 C14.0963855,62.9930326 25.6686747,62.9930326 25.6686747,62.9930326 C25.6686747,62.9930326 27,63.1850723 27,61.5527347 C27,59.9203971 25.7710843,59.8243773 25.7710843,59.8243773 L13.2771084,59.8243773" id="XMLID_11_" stroke="#BEC0C2" stroke-width="2"></path>
                <path d="M70.1435107,103.386741 C68.0619419,92.8531424 68.2978381,87.5863429 70.8511991,87.5863429 C73.4045601,87.5863429 74.8743745,90.7753716 75.2606421,97.1534289 C75.2606421,81.3507798 75.2606421,72.5352698 75.2606421,70.706899 C75.2606421,67.9643428 81.2719843,65.9134391 81.2719843,71.3728097 C81.2719843,75.0123902 81.2719843,78.9721254 81.2719843,83.2520154 C83.8568544,81.1411881 85.6959158,81.6058064 86.7891685,84.6458703 C89.117324,82.7515273 92.2903168,84.8880964 92.2903168,87.5863429 C93.9749274,87.4816878 97.5332031,88.4738019 97.5332031,91.9725761 C97.5332031,95.4713503 97.5332031,102.470018 97.5332031,103.677846 C97.5332031,104.885673 92.3726061,113.810059 84.3656417,113.810059 C79.0276655,113.810059 74.2869551,110.33562 70.1435107,103.386741 Z" id="Path-55" stroke="#C7C7C7" fill="#E7E7E7"></path>
                <path d="M81.685963,93.5016466 L81.685963,83" id="Path-56" stroke="#C7C7C7"></path>
                <path d="M87.1141059,85 L87.1141059,92.5250997" id="Path-58" stroke="#C7C7C7"></path>
                <path d="M92.2996007,88 L92.2996007,93.5036497" id="Path-58-Copy" stroke="#C7C7C7"></path>
            </g>
        </g>
    </g>
</svg>