<?xml version="1.0" encoding="UTF-8"?>
<svg width="21px" height="25px" viewBox="0 0 21 25" version="1.1" xmlns="http://www.w3.org/2000/svg" xmlns:xlink="http://www.w3.org/1999/xlink">
    <!-- Generator: Sketch 50.2 (55047) - http://www.bohemiancoding.com/sketch -->
    <title>数据库 </title>
    <desc>Created with Sketch.</desc>
    <defs></defs>
    <g id="dataworks" stroke="none" stroke-width="1" fill="none" fill-rule="evenodd">
        <g id="03-元数据管理-数据地图-华北销售" transform="translate(-342.000000, -110.000000)" fill="#F5A623" fill-rule="nonzero">
            <g id="cont" transform="translate(218.000000, 75.000000)">
                <g id="数据库-" transform="translate(124.000000, 35.000000)">
                    <path d="M5.2377551,0.471428571 C6.85102041,0.159183673 8.60510204,0 10.5,0 C12.394898,0 14.1489796,0.159183673 15.7622449,0.471428571 C17.3755102,0.783673469 18.6520408,1.2122449 19.5887755,1.75102041 C20.5255102,2.28979592 20.9969388,2.87142857 20.9969388,3.50204082 L20.9969388,5.25306122 C20.9969388,5.88367347 20.5285714,6.46530612 19.5887755,7.00408163 C18.6489796,7.54285714 17.3755102,7.96836735 15.7622449,8.28367347 C14.1489796,8.59285714 12.394898,8.74897959 10.5,8.74897959 C8.60510204,8.74897959 6.85102041,8.58979592 5.2377551,8.27755102 C3.6244898,7.96530612 2.34795918,7.53673469 1.41122449,6.99795918 C0.471428571,6.45918367 0.00306122449,5.87755102 0.00306122449,5.24693878 L0.00306122449,3.49591837 C0.00306122449,2.86530612 0.471428571,2.28367347 1.41122449,1.74489796 C2.35102041,1.2122449 3.6244898,0.786734694 5.2377551,0.471428571 Z M4.44795918,9.90612245 C6.3244898,10.2979592 8.34183673,10.4938776 10.5,10.4938776 C12.6581633,10.4938776 14.6755102,10.2979592 16.5520408,9.90612245 C18.4285714,9.51428571 19.9102041,8.93571429 20.9938776,8.17040816 L20.9938776,10.4938776 C20.9938776,11.1244898 20.5255102,11.7061224 19.5857143,12.244898 C18.6459184,12.7836735 17.372449,13.2091837 15.7591837,13.5244898 C14.1489796,13.8367347 12.394898,13.9928571 10.5,13.9928571 C8.60510204,13.9928571 6.85102041,13.8336735 5.2377551,13.5214286 C3.6244898,13.2091837 2.34795918,12.7806122 1.41122449,12.2418367 C0.471428571,11.7030612 0.00306122449,11.1214286 0.00306122449,10.4908163 L0.00306122449,8.16734694 C1.08979592,8.93877551 2.57142857,9.51734694 4.44795918,9.90612245 Z M4.44795918,15.1561224 C6.3244898,15.5479592 8.34183673,15.7438776 10.5,15.7438776 C12.6581633,15.7438776 14.6755102,15.5479592 16.5520408,15.1561224 C18.4285714,14.7642857 19.9102041,14.1857143 20.9938776,13.4204082 L20.9938776,15.7438776 C20.9938776,16.3744898 20.5255102,16.9561224 19.5857143,17.494898 C18.6459184,18.0336735 17.372449,18.4591837 15.7591837,18.7744898 C14.1459184,19.0897959 12.394898,19.2459184 10.5,19.2459184 C8.60510204,19.2459184 6.85102041,19.0867347 5.2377551,18.7744898 C3.6244898,18.4622449 2.35102041,18.0336735 1.41122449,17.494898 C0.471428571,16.9561224 0.00306122449,16.3744898 0.00306122449,15.7438776 L0.00306122449,13.4204082 C1.08979592,14.1857143 2.57142857,14.7642857 4.44795918,15.1561224 Z M4.44795918,20.4030612 C6.3244898,20.794898 8.34183673,20.9908163 10.5,20.9908163 C12.6581633,20.9908163 14.6755102,20.794898 16.5520408,20.4030612 C18.4285714,20.0112245 19.9102041,19.4326531 20.9938776,18.6673469 L20.9938776,20.9908163 C20.9938776,21.6214286 20.5255102,22.2030612 19.5857143,22.7418367 C18.6459184,23.2806122 17.372449,23.7061224 15.7591837,24.0214286 C14.1459184,24.3367347 12.394898,24.4897959 10.5,24.4897959 C8.60510204,24.4897959 6.85102041,24.3306122 5.2377551,24.0183673 C3.6244898,23.7061224 2.34795918,23.277551 1.41122449,22.7387755 C0.471428571,22.2 0.00306122449,21.6183673 0.00306122449,20.9877551 L0.00306122449,18.6642857 C1.08979592,19.4326531 2.57142857,20.0112245 4.44795918,20.4030612 Z" id="Shape"></path>
                </g>
            </g>
        </g>
    </g>
</svg>