<?xml version="1.0" encoding="utf-8"?>
<!-- Generator: Adobe Illustrator 19.0.0, SVG Export Plug-In . SVG Version: 6.00 Build 0)  -->
<svg version="1.1" id="图层_1" xmlns="http://www.w3.org/2000/svg" xmlns:xlink="http://www.w3.org/1999/xlink" x="0px" y="0px"
	 viewBox="-411 413 200 200" style="enable-background:new -411 413 200 200;" xml:space="preserve">
<style type="text/css">
	.st0{fill:#4C7DAA;}
</style>
<path class="st0" d="M-251.3,553h-21v21.7c0,1.8-1.4,3.2-3.2,3.2h-4.4c-1.8,0-3.2-1.4-3.2-3.2V553h-21c-1.8,0-3.2-1.4-3.2-3.2
	c0,0,0,0,0,0v-4.4c0-1.8,1.4-3.2,3.2-3.2h21v-21.7c0-1.8,1.4-3.2,3.2-3.2h4.4c1.8,0,3.2,1.4,3.2,3.2v21.7h21c1.8,0,3.2,1.4,3.2,3.2
	c0,0,0,0,0,0v4.4C-248.1,551.5-249.5,553-251.3,553L-251.3,553L-251.3,553z M-337.1,461.5h64.7c14.3,0,25.9,11.6,25.9,25.9v35.2
	c0,3.1-3.1,3.6-3.1,3.6h-2.6c-2.7,0-2.9-3.7-2.9-3.7v-11h-112v40.6c0,0,4.5,16.5,17.2,16.5h48.4c0,0,3.3,0.2,3.3,2.9v3.1
	c0,3.1-3.2,3.3-3.2,3.3H-350c-14.3,0-25.9-11.6-25.9-25.9v-90.7 M-367.3,469.8v33.3h112.6v-15.9c0-15.4-15.3-17.4-15.3-17.4h-82.6"
	/>
</svg>
