<?xml version="1.0" encoding="utf-8"?>
<!-- Generator: Adobe Illustrator 19.0.0, SVG Export Plug-In . SVG Version: 6.00 Build 0)  -->
<svg version="1.1" id="图层_1" xmlns="http://www.w3.org/2000/svg" xmlns:xlink="http://www.w3.org/1999/xlink" x="0px" y="0px"
	 viewBox="-411 413 200 200" style="enable-background:new -411 413 200 200;" xml:space="preserve">
<style type="text/css">
	.st0{fill:#272727;}
</style>
<path class="st0" d="M-226,586.8l-74-74l73.6-73.6c3-3,3-7.9,0-11c-3-3-7.9-3-11,0l-73.6,73.6l-73.6-73.6c-3-3-7.9-3-11,0
	c-3,3-3,7.9,0,11l73.6,73.6l-74,74c-3,3-3,7.9,0,11c1.5,1.5,3.5,2.3,5.5,2.3c2,0,4-0.8,5.5-2.3l74-74l74,74c1.5,1.5,3.5,2.3,5.5,2.3
	s4-0.8,5.5-2.3C-223,594.7-223,589.8-226,586.8L-226,586.8z"/>
</svg>
