<?xml version="1.0" encoding="utf-8"?>
<!-- Generator: Adobe Illustrator 19.0.0, SVG Export Plug-In . SVG Version: 6.00 Build 0)  -->
<svg version="1.1" id="图层_1" xmlns="http://www.w3.org/2000/svg" xmlns:xlink="http://www.w3.org/1999/xlink" x="0px" y="0px"
	 viewBox="-411 413 200 200" style="enable-background:new -411 413 200 200;" xml:space="preserve">
<style type="text/css">
	.st0{fill:#4C7DAA;}
</style>
<path class="st0" d="M-299.3,553.2v-60.5c0-7.1,11-7.1,11,0v60.5C-288.3,560.3-299.3,560.3-299.3,553.2L-299.3,553.2L-299.3,553.2
	L-299.3,553.2z M-332.3,553.2v-60.5c0-7.1,11-7.1,11,0v60.5C-321.3,560.3-332.3,560.3-332.3,553.2L-332.3,553.2L-332.3,553.2
	L-332.3,553.2z M-244.7,465.2h-21.5v-11c0-9.1-7.4-16.5-16.4-16.5h-55.3c-9.1,0-16.5,7.4-16.5,16.5v11h-21.5c-7.1,0-7.1,11,0,11
	h131.2C-237.6,476.2-237.6,465.2-244.7,465.2L-244.7,465.2L-244.7,465.2L-244.7,465.2z M-343.4,454.2c0-2.9,2.6-5.5,5.5-5.5h55.3
	c2.9,0,5.3,2.2,5.3,5.5v11h-66.1V454.2L-343.4,454.2L-343.4,454.2z M-271.7,591.7h-77.1c-9.1,0-16.5-7.4-16.5-16.5v-82.5
	c0-3.3,2.6-5.5,5.5-5.5c2.9,0,5.5,2.2,5.5,5.5v82.5c0,2.9,2.6,5.5,5.5,5.5h77.1c2.9,0,5.5-2.6,5.5-5.5v-82.3c0-7.2,11-7.2,11,0v82.3
	C-255.2,584.3-262.6,591.7-271.7,591.7L-271.7,591.7L-271.7,591.7z"/>
</svg>
