<?xml version="1.0" encoding="utf-8"?>
<!-- Generator: Adobe Illustrator 19.0.0, SVG Export Plug-In . SVG Version: 6.00 Build 0)  -->
<svg version="1.1" id="图层_1" xmlns="http://www.w3.org/2000/svg" xmlns:xlink="http://www.w3.org/1999/xlink" x="0px" y="0px"
	 viewBox="-411 413 200 200" style="enable-background:new -411 413 200 200;" xml:space="preserve">
<style type="text/css">
	.st0{fill:#4C7DAA;}
</style>
<path class="st0" d="M-343.9,522.4c-0.1,0.2-0.2,0.3-0.3,0.5l-8.8,33.4c-0.5,2,0,4,1.4,5.5c1,1.1,2.4,1.6,3.9,1.6
	c0.5,0,1-0.1,1.4-0.2l32.1-9c0.1,0,0.1,0,0.1,0c0.4,0,0.7-0.1,1-0.4l85.7-88.6c2.5-2.6,3.9-6.2,3.9-10.1c0-4.4-1.8-8.8-5-12.1
	l-8.1-8.3c-3.2-3.3-7.5-5.2-11.7-5.2c-3.8,0-7.2,1.4-9.8,4.1l-85.7,88.6C-343.9,522.2-343.9,522.3-343.9,522.4z M-235.8,456.6
	l-8.5,8.8l-13.8-14.5l8.4-8.7c1.3-1.4,3.9-1.2,5.4,0.4l8.1,8.4c0.8,0.9,1.3,2,1.3,3.2C-234.9,455.1-235.2,455.9-235.8,456.6z
	 M-328.7,523.8l61.9-63.9l13.8,14.5l-61.7,63.8L-328.7,523.8 M-340,549.8l4.5-17l11.9,12.3L-340,549.8 M-230.4,491.7
	c-3.2,0-5.9,2.7-5.9,6.1v82.6c0,4.3-3.4,7.9-7.6,7.9h-135.2c-4.2,0-7.6-3.5-7.6-7.9V445.6c0-4.3,3.4-7.9,7.6-7.9h87.1
	c3.3,0,5.9-2.7,5.9-6.1c0-3.4-2.7-6.1-5.9-6.1H-380c-10.2,0-18.5,8.6-18.5,19.2v136.7c0,10.6,8.3,19.2,18.5,19.2h137
	c10.2,0,18.5-8.6,18.5-19.2v-83.6C-224.5,494.4-227.2,491.7-230.4,491.7L-230.4,491.7z"/>
</svg>
