<?xml version="1.0" encoding="UTF-8"?>
<svg width="200px" height="36px" viewBox="0 0 200 36" version="1.1" xmlns="http://www.w3.org/2000/svg" xmlns:xlink="http://www.w3.org/1999/xlink">
    <!-- Generator: Sketch 50.2 (55047) - http://www.bohemiancoding.com/sketch -->
    <title>logo</title>
    <desc>Created with Sketch.</desc>
    <defs></defs>
    <g id="Page-1" stroke="none" stroke-width="1" fill="none" fill-rule="evenodd">
        <g id="00-首页" transform="translate(-29.000000, -32.000000)" fill-rule="nonzero">
            <g id="logo" transform="translate(29.000000, 32.000000)">
                <g id="XMLID_71_" transform="translate(41.592040, 7.164179)" fill="#FFFFFF">
                    <path d="M11.60199,6.00995025 L11.60199,0 L15.920398,0 L15.920398,21.8905473 L8.45771144,21.8905473 C6.94527363,21.8905473 5.79104478,21.7711443 5.01492537,21.5323383 C3.1840796,20.9552239 1.79104478,19.800995 0.895522388,18.0895522 C0.258706468,16.9353234 0.0199004975,15.5223881 0.0199004975,13.8706468 C0.0199004975,11.1641791 0.875621891,9.07462687 2.68656716,7.58208955 C3.88059701,6.58706468 5.49253731,6.02985075 7.52238806,6.02985075 L11.60199,6.02985075 L11.60199,6.00995025 Z M11.60199,18.5074627 L11.60199,9.39303483 L8.45771144,9.39303483 C7.06467662,9.39303483 6.02985075,9.91044776 5.31343284,10.8457711 C4.67661692,11.6218905 4.37810945,12.6368159 4.37810945,13.8706468 C4.37810945,15.6616915 4.89552239,16.9552239 5.93034826,17.7313433 C6.64676617,18.2487562 7.48258706,18.5074627 8.45771144,18.5074627 L11.60199,18.5074627 Z" id="XMLID_91_"></path>
                    <path d="M29.8905473,12.2587065 C29.8905473,11.1641791 29.6716418,10.4079602 29.2338308,10.0099502 C28.7960199,9.6119403 27.9004975,9.43283582 26.5870647,9.43283582 L18.3482587,9.43283582 L18.3482587,6.04975124 L26.5870647,6.04975124 C27.9004975,6.04975124 28.8159204,6.06965174 29.3134328,6.12935323 C29.8109453,6.18905473 30.3283582,6.28855721 30.8457711,6.44776119 C33.2537313,7.36318408 34.3880597,9.53233831 34.2487562,12.9751244 L34.2487562,21.8706468 L25.0945274,21.8706468 C23.4427861,21.8706468 22.3084577,21.8308458 21.6915423,21.7313433 C21.0547264,21.6318408 20.6965174,21.4328358 20.2189055,21.1343284 C18.9452736,20.2587065 18.3084577,18.9651741 18.3084577,17.2139303 C18.3084577,16.159204 18.5671642,15.2039801 19.0646766,14.3681592 C19.5820896,13.5323383 20.079602,12.9751244 20.9154229,12.6567164 C21.6517413,12.39801 22.8656716,12.2587065 24.5771144,12.2587065 L29.8905473,12.2587065 Z M29.8905473,15.6218905 L24.8955224,15.6218905 L24.1393035,15.6218905 C23.641791,15.6218905 23.2437811,15.761194 22.9452736,16.0199005 C22.6467662,16.278607 22.5074627,16.6368159 22.5074627,17.0945274 C22.5074627,17.5920398 22.6865672,17.9502488 23.0447761,18.1691542 C23.4029851,18.3880597 24.0199005,18.4875622 24.8756219,18.4875622 L29.8706468,18.4875622 L29.8706468,15.6218905 L29.8905473,15.6218905 Z" id="XMLID_88_"></path>
                    <path d="M40.1791045,5.99004975 L40.1791045,0 L44.5373134,0 L44.5373134,5.99004975 L48.5572139,5.99004975 L48.5572139,9.37313433 L44.5373134,9.37313433 L44.5373134,15.1840796 C44.5373134,16.5174129 44.6567164,17.3731343 44.8955224,17.7114428 C45.2537313,18.2288557 45.9104478,18.4875622 46.8457711,18.4875622 L48.5572139,18.4875622 L48.5572139,21.8706468 L45.4129353,21.8706468 C43.5223881,21.8706468 42.1890547,21.4129353 41.3930348,20.4975124 C40.5970149,19.5820896 40.199005,18.0696517 40.199005,15.920398 L40.199005,9.35323383 L36.6169154,9.35323383 L36.6169154,5.97014925 L40.1791045,5.97014925 L40.1791045,5.99004975 Z" id="XMLID_86_"></path>
                    <path d="M62.5074627,12.278607 C62.5074627,11.1840796 62.2885572,10.4278607 61.8507463,10.0298507 C61.4129353,9.6318408 60.5174129,9.45273632 59.2039801,9.45273632 L50.9651741,9.45273632 L50.9651741,5.99004975 L59.2039801,5.99004975 C60.5174129,5.99004975 61.4328358,6.00995025 61.9303483,6.06965174 C62.4278607,6.12935323 62.9452736,6.22885572 63.4626866,6.3880597 C65.8706468,7.30348259 67.0049751,9.55223881 66.8656716,12.9950249 L66.8656716,21.8905473 L57.7114428,21.8905473 C56.0597015,21.8905473 54.9253731,21.8507463 54.3084577,21.7512438 C53.6716418,21.6517413 53.3532338,21.4129353 52.8756219,21.0945274 C51.60199,20.2189055 50.9651741,18.9253731 50.9651741,17.1741294 C50.9651741,16.119403 51.2238806,15.1641791 51.721393,14.3283582 C52.238806,13.4925373 52.6766169,12.9751244 53.5124378,12.6766169 C54.2487562,12.4179104 55.4626866,12.278607 57.1741294,12.278607 L62.5074627,12.278607 Z M62.5074627,15.641791 L57.5124378,15.641791 L56.7562189,15.641791 C56.2587065,15.641791 55.8606965,15.7810945 55.5621891,16.039801 C55.2636816,16.2985075 55.1243781,16.6567164 55.1243781,17.1144279 C55.1243781,17.6119403 55.3034826,17.9701493 55.6616915,18.1890547 C56.0199005,18.4079602 56.6368159,18.5074627 57.4925373,18.5074627 L62.4875622,18.5074627 L62.4875622,15.641791 L62.5074627,15.641791 Z" id="XMLID_83_"></path>
                    <path d="M77.1144279,18.5074627 L77.1144279,5.99004975 L81.4726368,5.99004975 L81.4726368,18.5074627 L84.8358209,18.5074627 L84.8358209,5.99004975 L89.1542289,5.99004975 L89.1542289,21.8905473 L75.880597,21.8905473 C74.4278607,21.8905473 73.3333333,21.7910448 72.5771144,21.5721393 C71.8208955,21.3532338 71.1840796,20.9751244 70.6865672,20.4378109 C69.7313433,19.4029851 69.2537313,17.9701493 69.2537313,16.159204 L69.2537313,6.00995025 L73.5721393,6.00995025 L73.5721393,15.4626866 C73.5721393,16.2189055 73.6119403,16.7562189 73.6915423,17.0547264 C73.7711443,17.3532338 73.9104478,17.6318408 74.1293532,17.8706468 C74.5870647,18.3084577 75.2636816,18.5273632 76.1791045,18.5273632 L77.1144279,18.5273632 L77.1144279,18.5074627 Z" id="XMLID_81_"></path>
                    <path d="M99.5024876,5.99004975 C102.288557,5.99004975 104.318408,7.1840796 105.631841,8.7960199 C106.845771,10.2686567 107.462687,12.0995025 107.462687,14.3283582 C107.462687,16.6766169 106.706468,18.5472637 105.174129,19.960199 C103.781095,21.2338308 101.850746,21.8706468 99.4228856,21.8706468 C96.9154229,21.8706468 94.9452736,21.1542289 93.5124378,19.7014925 C92.199005,18.4079602 91.5422886,16.4975124 91.5422886,14.0099502 C91.5422886,11.9004975 92.1791045,10.1492537 93.4328358,8.75621891 C94.8258706,7.2039801 96.8557214,6.00995025 99.5024876,5.99004975 Z M99.5223881,9.21393035 C97.0348259,9.21393035 95.7810945,11.0845771 95.7810945,14.1691542 C95.7810945,15.4228856 95.9800995,16.3781095 96.39801,17.0348259 C97.0746269,18.1492537 98.1293532,18.7064677 99.5422886,18.7064677 C101.99005,18.7064677 103.223881,17.1741294 103.223881,14.1094527 C103.223881,11.1044776 101.99005,9.27363184 99.5223881,9.21393035 Z" id="XMLID_78_"></path>
                    <path d="M109.850746,5.99004975 L115.641791,5.99004975 C116.955224,5.99004975 117.970149,6.08955224 118.706468,6.26865672 C119.422886,6.44776119 120.0199,6.76616915 120.497512,7.2039801 C120.975124,7.64179104 121.313433,8.17910448 121.492537,8.8358209 C121.671642,9.49253731 121.791045,10.4079602 121.791045,11.6218905 L121.791045,13.1542289 L117.631841,13.1542289 L117.631841,12.318408 C117.631841,11.1840796 117.432836,10.4278607 117.054726,10.0099502 C116.656716,9.5920398 115.920398,9.39303483 114.80597,9.39303483 L114.208955,9.39303483 L114.208955,21.8905473 L109.850746,21.8905473 L109.850746,5.99004975 Z" id="XMLID_76_"></path>
                    <path d="M128.537313,0 L128.537313,12.3383085 L135.144279,5.99004975 L140.0199,5.99004975 L133.850746,12.3383085 L135.024876,12.3383085 C136.537313,12.3383085 137.59204,12.7761194 138.169154,13.6716418 C138.746269,14.5671642 139.044776,16.119403 139.044776,18.3880597 L139.044776,21.8905473 L134.686567,21.8905473 L134.686567,18.1890547 C134.686567,17.1940299 134.527363,16.5373134 134.208955,16.199005 C133.890547,15.8606965 132.457711,15.7014925 131.502488,15.7014925 L128.537313,15.7014925 L128.537313,21.8905473 L124.179104,21.8905473 L124.179104,0 L128.537313,0 Z" id="XMLID_74_"></path>
                    <path d="M158.38806,5.99004975 L158.40796,9.45273632 L149.432836,9.45273632 C148.537313,9.45273632 147.9801,9.49253731 147.741294,9.5920398 C147.243781,9.77114428 146.985075,10.1890547 146.985075,10.8656716 C146.985075,11.4228856 147.223881,11.8606965 147.701493,12.159204 C147.960199,12.3383085 148.656716,12.4179104 149.810945,12.4179104 L152.378109,12.4179104 C154.00995,12.4179104 155.880597,12.7164179 156.81592,13.4129353 C157.870647,14.1890547 158.40796,15.3432836 158.40796,16.8557214 C158.40796,18.0099502 158.089552,19.0447761 157.432836,20 C156.955224,20.7562189 156.378109,21.2537313 155.701493,21.4925373 C155.024876,21.7313433 153.313433,21.9104478 151.721393,21.9104478 L142.487562,21.9104478 L142.487562,18.5273632 L150.467662,18.5273632 C151.422886,18.5273632 152.079602,18.5074627 152.41791,18.4875622 C153.19403,18.4079602 153.59204,17.9502488 153.59204,17.1542289 C153.59204,16.4975124 153.333333,16.0597015 152.81592,15.8208955 C152.557214,15.681592 151.920398,15.6218905 150.925373,15.6218905 L148.298507,15.6218905 C147.263682,15.6218905 146.467662,15.5621891 145.910448,15.4228856 C145.353234,15.2835821 144.835821,15.0646766 144.358209,14.7064677 C143.781095,14.2885572 143.303483,13.7313433 142.985075,12.9950249 C142.646766,12.278607 142.487562,11.5024876 142.487562,10.6666667 C142.487562,9.09452736 143.064677,7.76119403 144.218905,6.82587065 C144.915423,6.26865672 146.129353,5.99004975 147.840796,5.99004975 L158.38806,5.99004975 Z" id="XMLID_72_"></path>
                </g>
                <g id="XMLID_135_" fill="#FF6E0B">
                    <path d="M15.721393,36.0199005 C15.3631841,36.0199005 15.0049751,35.920398 14.6865672,35.721393 L1.09452736,27.4626866 C0.47761194,27.0845771 0.119402985,26.4278607 0.119402985,25.7114428 L0.457711443,9.81094527 C0.47761194,9.09452736 0.875621891,8.43781095 1.49253731,8.09950249 L15.4427861,0.437810945 C16.079602,0.0995024876 16.8358209,0.119402985 17.4527363,0.47761194 L31.0447761,8.73631841 C31.6616915,9.11442786 32.0199005,9.79104478 32.0199005,10.5074627 C32,11.2238806 31.60199,11.880597 30.9651741,12.2189055 L15.0646766,20.7960199 C14.0895522,21.3134328 12.8756219,20.9552239 12.3383085,19.9800995 C11.8208955,19.0049751 12.1791045,17.7910448 13.1542289,17.2537313 L25.9701493,10.3482587 L16.358209,4.51741294 L4.43781095,11.0646766 L4.13930348,24.6567164 L15.761194,31.7014925 L28.6965174,24.5970149 C29.6716418,24.0597015 30.8855721,24.4179104 31.4228856,25.3930348 C31.960199,26.3681592 31.60199,27.5820896 30.6268657,28.119403 L16.6766169,35.7810945 C16.3781095,35.9402985 16.0597015,36.0199005 15.721393,36.0199005 Z" id="XMLID_145_"></path>
                    <path d="M16.7562189,27.840796 C16.039801,27.840796 15.3631841,27.4626866 14.9850746,26.7860697 C14.4477612,25.8109453 14.8258706,24.5970149 15.7810945,24.0597015 L30.0298507,16.318408 C31.0049751,15.7810945 32.2189055,16.159204 32.7562189,17.1144279 C33.2935323,18.0895522 32.9154229,19.3034826 31.960199,19.840796 L17.7114428,27.60199 C17.4129353,27.761194 17.0746269,27.840796 16.7562189,27.840796 Z" id="XMLID_146_"></path>
                </g>
            </g>
        </g>
    </g>
</svg>