<?xml version="1.0" encoding="UTF-8"?>
<svg width="16px" height="16px" viewBox="0 0 16 16" version="1.1" xmlns="http://www.w3.org/2000/svg" xmlns:xlink="http://www.w3.org/1999/xlink">
    <!-- Generator: Sketch 50.2 (55047) - http://www.bohemiancoding.com/sketch -->
    <title>错误提示</title>
    <desc>Created with Sketch.</desc>
    <defs></defs>
    <g id="Design" stroke="none" stroke-width="1" fill="none" fill-rule="evenodd">
        <g id="吐司样式" transform="translate(-651.000000, -492.000000)" fill="#FA5453" fill-rule="nonzero">
            <g id="错误提示" transform="translate(651.000000, 492.000000)">
                <path d="M4.88888333,11.6630833 C4.74551667,11.6630833 4.60215,11.6129167 4.50178333,11.5053833 C4.27956667,11.2903333 4.27956667,10.9390667 4.50178333,10.7240167 L7.2258,8 L4.50178333,5.27598333 C4.27956667,5.06093333 4.27956667,4.71685 4.50178333,4.5018 C4.71683333,4.27958333 5.06091667,4.27958333 5.27596667,4.5018 L7.99998333,7.22581667 L10.724,4.5018 C10.93905,4.27958333 11.2903167,4.27958333 11.5053667,4.5018 C11.7204167,4.71685 11.7204167,5.06093333 11.5053667,5.27598333 L8.78135,8 L11.5053667,10.7240167 C11.7204167,10.9390667 11.7204167,11.2903333 11.5053667,11.5053833 C11.3978333,11.6129167 11.2544833,11.6630833 11.1111,11.6630833 C10.9749,11.6630833 10.8315333,11.6129167 10.724,11.5053833 L7.99998333,8.78136667 L5.27596667,11.5053833 C5.16843333,11.6129167 5.03223333,11.6630833 4.88886667,11.6630833 L4.88888333,11.6630833 Z M8,0 C3.58423333,0 0,3.58423333 0,8 C0,12.4229333 3.58423333,16 8,16 C12.4229333,16 16,12.4229333 16,8 C16,3.58423333 12.4229333,0 8,0 Z" id="Shape"></path>
            </g>
        </g>
    </g>
</svg>