<?xml version="1.0" encoding="UTF-8"?>
<svg width="16px" height="16px" viewBox="0 0 16 16" version="1.1" xmlns="http://www.w3.org/2000/svg" xmlns:xlink="http://www.w3.org/1999/xlink">
    <!-- Generator: Sketch 50.2 (55047) - http://www.bohemiancoding.com/sketch -->
    <title>消息提示</title>
    <desc>Created with Sketch.</desc>
    <defs></defs>
    <g id="Design" stroke="none" stroke-width="1" fill="none" fill-rule="evenodd">
        <g id="吐司样式" transform="translate(-651.000000, -562.000000)" fill="#878D99" fill-rule="nonzero">
            <g id="消息提示" transform="translate(651.000000, 562.000000)">
                <path d="M8,0.000335765625 C3.58189148,0.000335765625 0.000335765625,3.58189147 0.000335765625,8 C0.000335765625,12.4181085 3.58189147,15.9996642 8,15.9996642 C12.4180126,15.9996642 15.9996642,12.4181085 15.9996642,8 C15.9996642,3.58189147 12.4180126,0.000335765625 8,0.000335765625 Z M10.1646124,12.489708 C9.69413138,12.6523017 9.32444602,12.7776887 9.04305281,12.8665885 C8.76556095,12.9553922 8.43978183,12.9997782 8.07009648,12.9997782 C7.50321683,12.9997782 7.06073283,12.8738795 6.74734531,12.629789 C6.4296567,12.3783915 6.27286702,12.0680099 6.27286702,11.6833267 C6.27286702,11.535427 6.28485889,11.3874473 6.30876267,11.2322406 C6.33325806,11.0770498 6.373167,10.8993622 6.42166213,10.7069647 L7.00833636,8.85054336 C7.06073283,8.6733515 7.03104097,8.51075773 7.06752823,8.34776425 C7.10372769,8.19257347 7.11962092,8.04467375 7.11962092,7.91917483 C7.11962092,7.67468459 7.14202173,7.51209083 7.0332315,7.42319111 C6.92042798,7.32709627 6.71584669,7.35469355 6.40605672,7.35469355 C6.25286458,7.35469355 6.09617083,7.37669462 5.939573,7.41369355 C5.77878602,7.45819137 5.64219062,7.42319111 5.52938711,7.46768894 L5.68657653,6.89072012 C6.06825375,6.75012745 6.43793911,6.63193558 6.78813367,6.53572881 C7.13802445,6.43232692 7.47130248,6.38794102 7.78109245,6.38794102 C8.34787617,6.38794102 8.78255745,6.50643667 9.08783848,6.75052719 C9.39332736,6.99461769 9.73111434,7.31240223 9.73111434,7.69708542 C9.73111434,7.77858217 9.71861083,7.91917484 9.69860837,8.1261705 C9.67870188,8.32576317 9.63831325,8.51075775 9.58191948,8.68064256 L8.81005878,10.5293891 C8.76556095,10.6772888 8.72165472,10.8475733 8.68526339,11.0399709 C8.64485878,11.2249655 8.62496827,11.3728492 8.62496827,11.46896 C8.62496827,11.7130505 8.68926067,11.8829354 8.81005878,11.9718351 C8.93475823,12.0602392 9.14784577,12.1046251 9.44912948,12.1046251 C9.58993002,12.1046251 9.7510208,12.082624 9.93160238,12.0386218 C10.1122959,11.9942199 10.2409926,11.9571251 10.3213861,11.9200302 L10.1646124,12.489708 Z M10.0603151,4.98992883 C9.79092975,5.2193253 9.46163302,5.33011419 9.07955606,5.33011419 C8.69776692,5.33011419 8.3679905,5.2193253 8.0904027,4.98992883 C7.81702006,4.76783941 7.68042467,4.49445677 7.68042467,4.1688695 C7.68042467,3.8505893 7.81702006,3.57679092 8.0904027,3.34781017 C8.3679905,3.11881344 8.69778291,3.00022184 9.07955606,3.00022184 C9.46113734,3.00022184 9.79092975,3.11831778 10.0603151,3.34781017 C10.3336977,3.57720664 10.4705969,3.85108495 10.4705969,4.1688695 C10.4705969,4.49444077 10.3336977,4.76783941 10.0603151,4.98992883 Z" id="Shape"></path>
            </g>
        </g>
    </g>
</svg>