<?xml version="1.0" encoding="utf-8"?>
<!-- Generator: Adobe Illustrator 19.0.0, SVG Export Plug-In . SVG Version: 6.00 Build 0)  -->
<svg version="1.1" id="图层_1" xmlns="http://www.w3.org/2000/svg" xmlns:xlink="http://www.w3.org/1999/xlink" x="0px" y="0px"
	 viewBox="-411 413 200 200" style="enable-background:new -411 413 200 200;" xml:space="preserve">
<style type="text/css">
	.st0{fill:#272727;}
</style>
<path class="st0" d="M-311,606.8c-51.7,0-93.8-42-93.8-93.8s42-93.8,93.8-93.8s93.8,42,93.8,93.8S-259.3,606.8-311,606.8z
	 M-311,431.8c-44.8,0-81.2,36.5-81.2,81.2s36.5,81.2,81.2,81.2s81.2-36.5,81.2-81.2S-266.2,431.8-311,431.8z"/>
<path class="st0" d="M-311,531.8c-19,0-34.4-15.4-34.4-34.4c0-19,15.4-34.4,34.4-34.4s34.4,15.4,34.4,34.4
	C-276.6,516.3-292,531.8-311,531.8z M-311,475.5c-12.1,0-21.9,9.8-21.9,21.9s9.8,21.9,21.9,21.9s21.9-9.8,21.9-21.9
	S-298.9,475.5-311,475.5z"/>
<path class="st0" d="M-254.5,586.2c-2.3,0-4.6-1.3-5.6-3.6c-9.3-19.5-29.2-32.1-50.8-32.1c-21.6,0-41.5,12.6-50.8,32
	c-1.5,3.1-5.2,4.5-8.3,3c-3.1-1.5-4.4-5.2-3-8.3c11.4-23.8,35.7-39.2,62.1-39.2c26.4,0,50.8,15.4,62.1,39.2c1.5,3.1,0.2,6.9-2.9,8.3
	C-252.7,586-253.6,586.2-254.5,586.2z"/>
</svg>
