<?xml version="1.0" encoding="utf-8"?>
<!-- Generator: Adobe Illustrator 19.0.0, SVG Export Plug-In . SVG Version: 6.00 Build 0)  -->
<svg version="1.1" id="图层_1" xmlns="http://www.w3.org/2000/svg" xmlns:xlink="http://www.w3.org/1999/xlink" x="0px" y="0px"
	 viewBox="-411 413 200 200" style="enable-background:new -411 413 200 200;" xml:space="preserve">
<style type="text/css">
	.st0{fill:#4C7DAA;}
</style>
<path class="st0" d="M-234.1,579.9c4.8,0,8.5-3.4,8.5-7.4V462.1c0-4-3.7-7.4-8.5-7.4h-152.5c-4.8,0-8.5,3.4-8.5,7.4v110.4
	c0,4,3.7,7.4,8.5,7.4L-234.1,579.9L-234.1,579.9z M-234.1,587.2h-152.5c-8.8,0-15.8-6.6-15.8-14.8V462.1c0-8.2,7.1-14.8,15.8-14.8
	h152.5c8.8,0,15.8,6.6,15.8,14.8v110.4C-218.3,580.6-225.3,587.2-234.1,587.2z M-380.3,554.8c0,0-0.2-10.1,2.1-12.3
	c2.3-2.2,3.2-6,15.4-7.8c12.2-1.8,10.9-8,11.3-7.8c-0.1-2.4-0.3-5.7-0.3-5.7s-6.4-2.6-8.2-7.8c-3.9-1.5-3.4-2.5-3.8-4.5
	c0,0-1.2-8.1,1.5-7.9c0,0,1.7,0,1.3-1.9c-0.1-3.1-0.1-9.1,0.1-11.1c0.2-2.1,1.8-7.6,6.2-8.4c4.4-0.8,2.6-0.4,4.1-0.6
	c1.5-0.2,1-1,3.8-1l5.7-1.1c2.7,0,4.5,4.4,6,4.6c1.5,0.2,1.8-0.6,4.8-0.1c4.4,0.8,3.8,6.7,4,8.8c0.2,2.1,0.6,7.6,0.2,9.5
	c-0.4,1.8,0.9,1.6,0.9,1.6c3.2,0,2.2,7.9,2.2,7.9c-0.5,2.1-1.8,2.3-4.8,4.2c-1.9,5.2-7.8,9-7.8,9s0,4.3,0,5.2
	c0.1,0.4-0.7,5.7,9.7,7.2c12.2,1.8,14.3,5.6,16.6,7.8c2.3,2.2,2.6,12.3,2.6,12.3L-380.3,554.8L-380.3,554.8z M-292.2,540.6h45.7V555
	h-45.7V540.6z M-292.2,511.9h45.7v14.4h-45.7V511.9z M-292.2,483.2h45.7v14.4h-45.7V483.2z"/>
</svg>
