<?xml version="1.0" encoding="utf-8"?>
<!-- Generator: Adobe Illustrator 19.0.0, SVG Export Plug-In . SVG Version: 6.00 Build 0)  -->
<svg version="1.1" id="图层_1" xmlns="http://www.w3.org/2000/svg" xmlns:xlink="http://www.w3.org/1999/xlink" x="0px" y="0px"
	 viewBox="-411 413 200 200" style="enable-background:new -411 413 200 200;" xml:space="preserve">
<style type="text/css">
	.st0{fill:#CCCCCC;}
</style>
<path class="st0" d="M-304,551.5V491c0-7.1,11-7.1,11,0v60.5C-293,558.6-304,558.6-304,551.5L-304,551.5L-304,551.5L-304,551.5z
	 M-337,551.5V491c0-7.1,11-7.1,11,0v60.5C-326,558.6-337,558.6-337,551.5L-337,551.5L-337,551.5L-337,551.5z M-249.4,463.5h-21.5
	v-11c0-9.1-7.4-16.5-16.4-16.5h-55.3c-9.1,0-16.5,7.4-16.5,16.5v11h-21.5c-7.1,0-7.1,11,0,11h131.2
	C-242.3,474.5-242.3,463.5-249.4,463.5L-249.4,463.5L-249.4,463.5L-249.4,463.5z M-348.1,452.5c0-2.9,2.6-5.5,5.5-5.5h55.3
	c2.9,0,5.3,2.2,5.3,5.5v11h-66.1L-348.1,452.5L-348.1,452.5L-348.1,452.5z M-276.4,590h-77.1c-9.1,0-16.5-7.4-16.5-16.5V491
	c0-3.3,2.6-5.5,5.5-5.5s5.5,2.2,5.5,5.5v82.5c0,2.9,2.6,5.5,5.5,5.5h77.1c2.9,0,5.5-2.6,5.5-5.5v-82.3c0-7.2,11-7.2,11,0v82.3
	C-259.9,582.6-267.3,590-276.4,590L-276.4,590L-276.4,590z"/>
</svg>
