<?xml version="1.0" encoding="utf-8"?>
<!-- Generator: Adobe Illustrator 19.0.0, SVG Export Plug-In . SVG Version: 6.00 Build 0)  -->
<svg version="1.1" id="图层_1" xmlns="http://www.w3.org/2000/svg" xmlns:xlink="http://www.w3.org/1999/xlink" x="0px" y="0px"
	 viewBox="-411 413 200 200" style="enable-background:new -411 413 200 200;" xml:space="preserve">
<style type="text/css">
	.st0{fill:#4C7DAA;}
</style>
<path class="st0" d="M-285.9,548.6c-7.6,5.3-16.4,8-25.5,7.9c-1.2,0-2.4-0.1-3.6-0.2c-0.5,0-1-0.1-1.4-0.2c-0.9-0.1-1.9-0.2-2.8-0.4
	c-0.6-0.1-1.1-0.3-1.7-0.4c-0.9-0.2-1.8-0.4-2.6-0.6c-0.4-0.2-0.8-0.3-1.2-0.4c-1-0.3-2-0.7-3-1.1c-0.2-0.1-0.4-0.2-0.6-0.3
	c-1.1-0.5-2.2-1-3.3-1.6c0,0-0.1,0-0.1-0.1c-3.7-2-7-4.5-9.9-7.4c0,0-0.1-0.1-0.2-0.2c-0.9-0.9-1.8-1.8-2.6-2.9
	c-0.2-0.2-0.3-0.4-0.5-0.7c-5.9-7.4-9.5-16.9-9.5-27.1h11.5l-18.3-27.5l-18.3,27.5h11.4c0,12.1,3.8,23.2,10.1,32.5
	c0.1,0.1,0.1,0.3,0.2,0.4c0.7,1,1.4,1.8,2.1,2.7c0.3,0.3,0.5,0.7,0.8,1c1,1.2,2.2,2.4,3.3,3.6c0.1,0.1,0.2,0.2,0.3,0.3
	c3.8,3.8,8.2,7.1,12.9,9.7c0.1,0.1,0.2,0.1,0.4,0.2c1.4,0.7,2.8,1.4,4.2,2c0.4,0.2,0.7,0.3,1,0.5c1.2,0.5,2.5,0.9,3.7,1.4
	c0.6,0.2,1.2,0.4,1.8,0.6c1.1,0.3,2.2,0.6,3.3,0.8c0.8,0.2,1.5,0.4,2.2,0.5c0.3,0.1,0.6,0.2,0.9,0.2c1.1,0.2,2.1,0.3,3.2,0.4
	c0.4,0.1,0.8,0.1,1.2,0.2c1.9,0.2,3.8,0.3,5.7,0.3c11.6,0,23-3.6,32.8-10.4c3.1-2.2,3.9-6.5,1.7-9.6
	C-278.5,547.1-282.8,546.4-285.9,548.6z M-253.6,512.9c0-12-3.7-23.2-10.1-32.4c-0.1-0.2-0.2-0.3-0.2-0.4c-0.8-1.1-1.7-2.2-2.5-3.3
	c-0.1-0.1-0.2-0.3-0.3-0.4c-5.8-7-13.1-12.5-21.4-16.1c-0.2-0.1-0.4-0.2-0.7-0.3c-1.3-0.5-2.7-1-4.1-1.5c-0.5-0.2-1-0.3-1.5-0.5
	c-1.2-0.4-2.4-0.6-3.6-0.9c-0.7-0.2-1.3-0.3-2-0.4c-0.3-0.1-0.6-0.2-1-0.2c-0.9-0.2-1.8-0.2-2.7-0.4c-0.6-0.1-1.2-0.2-1.9-0.2
	c-1.5-0.2-3-0.2-4.6-0.2c-0.3,0-0.5,0-0.8,0c0,0-0.1,0-0.2,0c-11.6,0-23,3.5-32.7,10.4c-3.1,2.2-3.9,6.4-1.7,9.6
	c2.1,3.1,6.5,3.8,9.6,1.7c7.5-5.3,16.3-7.9,25.3-7.8c1.3,0,2.6,0.1,3.8,0.2c0.4,0,0.8,0.1,1.2,0.2c1,0.1,2.1,0.3,3.1,0.5
	c0.4,0.1,0.9,0.2,1.3,0.3c1,0.2,2,0.5,2.9,0.8c0.3,0.1,0.6,0.2,0.9,0.3c1.1,0.4,2.2,0.7,3.3,1.2c0.1,0,0.2,0.1,0.3,0.2
	c6.4,2.8,12,7,16.4,12.3c0,0,0,0.1,0.1,0.1c6.2,7.5,9.9,17.1,9.9,27.6h-11.5l18.4,27.5l18.3-27.5L-253.6,512.9"/>
</svg>
