<?xml version="1.0" standalone="no"?><!DOCTYPE svg PUBLIC "-//W3C//DTD SVG 1.1//EN" "http://www.w3.org/Graphics/SVG/1.1/DTD/svg11.dtd"><svg t="1544422374152" class="icon" style="" viewBox="0 0 1024 1024" version="1.1" xmlns="http://www.w3.org/2000/svg" p-id="2567" xmlns:xlink="http://www.w3.org/1999/xlink" width="1024" height="1024"><defs><style type="text/css"></style></defs><path d="M800.8 149h-58.2v-22.6c0-35.3-28.7-64-64-64h-336c-35.3 0-64 28.7-64 64V149h-53.8c-35.3 0-64 28.7-64 64v681.4c0 35.3 28.7 64 64 64h576c35.3 0 64-28.7 64-64V213c0-35.3-28.7-64-64-64z m-458.2-22.6l335.9-0.1 0.1 0.1v96l-0.1 0.1H342.6l-0.1-0.1v-96z m458.2 767.9h-576V213h53.8v9.4c0 35.3 28.7 64 64 64h336c35.3 0 64-28.7 64-64V213h58.2v681.3z" p-id="2568" fill="#333333"></path><path d="M706.1 361.8h-265c-17.7 0-32 14.3-32 32s14.3 32 32 32h265c17.7 0 32-14.3 32-32s-14.3-32-32-32zM706.1 545.3h-265c-17.7 0-32 14.3-32 32s14.3 32 32 32h265c17.7 0 32-14.3 32-32s-14.3-32-32-32zM706.1 727.6h-265c-17.7 0-32 14.3-32 32s14.3 32 32 32h265c17.7 0 32-14.3 32-32s-14.3-32-32-32z" p-id="2569" fill="#333333"></path><path d="M315.1 393.8m-32 0a32 32 0 1 0 64 0 32 32 0 1 0-64 0Z" p-id="2570" fill="#333333"></path><path d="M315.1 577.3m-32 0a32 32 0 1 0 64 0 32 32 0 1 0-64 0Z" p-id="2571" fill="#333333"></path><path d="M315.1 759.6m-32 0a32 32 0 1 0 64 0 32 32 0 1 0-64 0Z" p-id="2572" fill="#333333"></path></svg>