<?xml version="1.0" encoding="utf-8"?>
<!-- Generator: Adobe Illustrator 19.0.0, SVG Export Plug-In . SVG Version: 6.00 Build 0)  -->
<svg version="1.1" id="图层_1" xmlns="http://www.w3.org/2000/svg" xmlns:xlink="http://www.w3.org/1999/xlink" x="0px" y="0px"
	 viewBox="-411 413 200 200" style="enable-background:new -411 413 200 200;" xml:space="preserve">
<style type="text/css">
	.st0{fill:#272727;}
</style>
<path class="st0" d="M-311,596.9c-49.9,0-75.3-11.2-75.3-33.4c0-15.8,26.1-26.2,52.1-29.7v-3.3c-15.6-10.9-23.2-30-23.2-58.1
	c0-27.2,17-43.5,45.6-43.5h1.5c28.6,0,45.6,16.3,45.6,43.5c0,10.6,0,41.9-23,58.1l-0.1,3.3c26,3.5,52,13.9,52,29.6
	C-235.8,585.7-261.1,596.9-311,596.9L-311,596.9z M-311.8,440.6c-15.5,0-34,5.5-34,31.9c0,25.3,6.7,41.7,20.4,50
	c1.7,1,2.8,2.9,2.8,4.9V539c0,3-2.3,5.5-5.2,5.7c-28.2,2.8-46.9,13.2-46.9,18.7c0,18,34.6,21.8,63.7,21.8c29.1,0,63.7-3.8,63.7-21.8
	c0-5.6-18.7-15.9-46.9-18.7c-3-0.3-5.3-2.9-5.2-5.9l0.3-11.6c0-2,1.1-3.8,2.8-4.8c13.8-8.3,20.2-24.2,20.2-50
	c0-26.4-18.5-31.9-34-31.9L-311.8,440.6L-311.8,440.6z"/>
</svg>
