<?xml version="1.0" encoding="UTF-8"?>
<svg width="12px" height="12px" viewBox="0 0 12 12" version="1.1" xmlns="http://www.w3.org/2000/svg" xmlns:xlink="http://www.w3.org/1999/xlink">
    <!-- Generator: Sketch 47.1 (45422) - http://www.bohemiancoding.com/sketch -->
    <title>ico_多选框_选中_slice</title>
    <desc>Created with Sketch.</desc>
    <defs></defs>
    <g id="Page-1" stroke="none" stroke-width="1" fill="none" fill-rule="evenodd">
        <g id="Artboard" transform="translate(-284.000000, -123.000000)" fill-rule="nonzero" fill="#333333">
            <g id="ico-多选框-选中" transform="translate(284.000000, 123.000000)">
                <path d="M9.17442462,3.54786462 C8.99350154,3.36827077 8.70092308,3.37019077 8.52184615,3.55155692 L5.15719385,6.95261538 L3.66786462,5.42215385 C3.48967385,5.23894154 3.19753846,5.23569231 3.01521231,5.41292308 C2.83244308,5.59059692 2.82830769,5.88324923 3.00598154,6.06557538 L4.82355692,7.93344 C4.82444308,7.93484308 4.82636308,7.93484308 4.82724923,7.93617231 C4.82820923,7.93713231 4.82865231,7.93890462 4.82953846,7.93986462 C4.85863385,7.96851692 4.89459692,7.98601846 4.92878769,8.00544 C4.94680615,8.01511385 4.96113231,8.03128615 4.97959385,8.03867077 C5.03542154,8.06178462 5.09501538,8.07330462 5.15409231,8.07330462 C5.21265231,8.07330462 5.27128615,8.06178462 5.32667077,8.03963077 C5.34468923,8.03217231 5.35849846,8.01740308 5.37563077,8.00817231 C5.41026462,7.98882462 5.44622769,7.97176615 5.47576615,7.94267077 C5.47672615,7.94171077 5.47716923,7.93986462 5.47857231,7.93890462 C5.47953231,7.93750154 5.48086154,7.93713231 5.48226462,7.93617231 L9.17782154,4.20051692 C9.35726769,4.01952 9.35542154,3.72738462 9.17442462,3.54786462 Z M10.6153846,12 L1.38461538,12 C0.621267692,12 0,11.3788062 0,10.6153846 L0,1.38461538 C0,0.621267692 0.621267692,0 1.38461538,0 L10.6153846,0 C11.3788062,0 12,0.621267692 12,1.38461538 L12,10.6153846 C12,11.3788062 11.3788062,12 10.6153846,12 Z M1.38461538,0.923076923 C1.13028923,0.923076923 0.923076923,1.13028923 0.923076923,1.38461538 L0.923076923,10.6153846 C0.923076923,10.8701538 1.13028923,11.0769231 1.38461538,11.0769231 L10.6153846,11.0769231 C10.8701538,11.0769231 11.0769231,10.8701538 11.0769231,10.6153846 L11.0769231,1.38461538 C11.0769231,1.13028923 10.8701538,0.923076923 10.6153846,0.923076923 L1.38461538,0.923076923 Z" id="Shape"></path>
            </g>
        </g>
    </g>
</svg>