<?xml version="1.0" encoding="UTF-8"?>
<svg width="12px" height="12px" viewBox="0 0 12 12" version="1.1" xmlns="http://www.w3.org/2000/svg" xmlns:xlink="http://www.w3.org/1999/xlink">
    <!-- Generator: Sketch 47.1 (45422) - http://www.bohemiancoding.com/sketch -->
    <title>ico_多选框_未选__slice</title>
    <desc>Created with Sketch.</desc>
    <defs></defs>
    <g id="Page-1" stroke="none" stroke-width="1" fill="none" fill-rule="evenodd">
        <g id="Artboard" transform="translate(-196.000000, -123.000000)" fill-rule="nonzero" fill="#333333">
            <g id="ico-多选框-未选-" transform="translate(196.000000, 123.000000)">
                <path d="M10.627749,0.00156862745 L1.37560784,0.00156862745 C0.619827451,0.00156862745 0.0049254902,0.616470588 0.0049254902,1.37225098 L0.0049254902,10.6243922 C0.0049254902,11.3801725 0.619827451,11.9950745 1.37560784,11.9950745 L10.627749,11.9950745 C11.3835294,11.9950745 11.9984314,11.3801725 11.9984314,10.6243922 L11.9984314,1.37225098 C11.9984314,0.616470588 11.3835294,0.00156862745 10.627749,0.00156862745 Z M11.0846275,10.6243922 C11.0846275,10.8756863 10.8790275,11.0812863 10.6277333,11.0812863 L1.37559216,11.0812863 C1.12429804,11.0812863 0.918698039,10.8756863 0.918698039,10.6243922 L0.918698039,1.37225098 C0.918698039,1.12095686 1.12429804,0.915356863 1.37559216,0.915356863 L10.6277333,0.915356863 C10.8790275,0.915356863 11.0846275,1.12095686 11.0846275,1.37225098 L11.0846275,10.6243922 Z" id="Shape"></path>
            </g>
        </g>
    </g>
</svg>