<?xml version="1.0" encoding="UTF-8"?>
<svg width="14px" height="14px" viewBox="0 0 14 14" version="1.1" xmlns="http://www.w3.org/2000/svg" xmlns:xlink="http://www.w3.org/1999/xlink">
    <!-- Generator: Sketch 47.1 (45422) - http://www.bohemiancoding.com/sketch -->
    <title>ico_数据_slice</title>
    <desc>Created with Sketch.</desc>
    <defs></defs>
    <g id="Page-1" stroke="none" stroke-width="1" fill="none" fill-rule="evenodd">
        <g id="Artboard" transform="translate(-47.000000, -97.000000)" fill-rule="nonzero" fill="#333333">
            <g id="ico-数据" transform="translate(47.000000, 97.000000)">
                <path d="M7.00054058,1.06683143 C7.23190979,1.06683143 7.40489612,1.11163836 7.48382115,1.15111111 L12.1501274,3.45440016 L7.48382115,5.75555556 C7.40489614,5.79502832 7.23190981,5.83983524 7.00054058,5.83983524 C6.76917135,5.83983524 6.59618504,5.79502831 6.51726002,5.75555556 L1.84987258,3.45333333 L6.51726002,1.15111111 C6.59618504,1.11163834 6.76917137,1.06683143 7.00054058,1.06683143 L7.00054058,1.06683143 Z M7.00054058,0 C6.65024326,0 6.29994593,0.0650767161 6.03397946,0.196296977 L0.39894973,2.97645969 C-0.132983243,3.23890022 -0.132983243,3.66776646 0.39894973,3.93020698 L6.0328983,6.71036968 C6.29994595,6.84158994 6.65024327,6.90666665 7.00054058,6.90666667 C7.35083789,6.90666668 7.70113523,6.84158995 7.96710171,6.71036968 L13.6010503,3.93020698 C14.1329832,3.66776645 14.1329832,3.23890021 13.6010503,2.97645969 L7.96710171,0.196296977 C7.70113523,0.0650767161 7.3508379,4.81170956e-17 7.00054058,0 Z" id="Shape"></path>
                <path d="M7.00038946,10.2663708 C6.56963215,10.2663708 6.13995174,10.1825054 5.79642278,10.0158229 L0.2978057,7.34051557 C0.0316542971,7.21082629 -0.0761043405,6.89565916 0.0571200467,6.63657009 C0.190344434,6.37748102 0.514102481,6.27258176 0.780253884,6.40227103 L6.27779408,9.07862665 C6.65686051,9.2631306 7.34391842,9.2631306 7.72298485,9.07862665 L13.220525,6.40227103 C13.4866764,6.27287124 13.8101934,6.37800517 13.9431204,6.63709425 C14.0760474,6.89618332 13.9680477,7.21111577 13.7018963,7.34051557 L8.20435615,10.0158229 C7.82760264,10.1867248 7.41599329,10.2723816 7.00038946,10.2663708 L7.00038946,10.2663708 Z" id="Shape"></path>
                <path d="M7.00021591,13.6266667 C6.56944792,13.6266667 6.13975685,13.5427899 5.79621937,13.3760848 L0.298542879,10.6993674 C0.0314667269,10.5704068 -0.07622527,10.2558689 0.0573128127,9.99689938 C0.190850895,9.73792985 0.512849969,9.63413235 0.779926107,9.76204442 L6.27760262,12.4387619 C6.65667845,12.6232908 7.34375339,12.6232908 7.72282922,12.4387619 L13.2205057,9.76204442 C13.4866637,9.63262713 13.8101887,9.73777528 13.943119,9.99689938 C14.0760493,10.2560235 13.9680469,10.5709985 13.7018889,10.7004158 L8.20421245,13.3760848 C7.86067497,13.5438384 7.4309839,13.6266667 7.00021591,13.6266667 L7.00021591,13.6266667 Z" id="Shape"></path>
            </g>
        </g>
    </g>
</svg>