<?xml version="1.0" encoding="UTF-8"?>
<svg width="14px" height="13px" viewBox="0 0 14 13" version="1.1" xmlns="http://www.w3.org/2000/svg" xmlns:xlink="http://www.w3.org/1999/xlink">
    <!-- Generator: Sketch 47.1 (45422) - http://www.bohemiancoding.com/sketch -->
    <title>ico_文件夹_slice</title>
    <desc>Created with Sketch.</desc>
    <defs></defs>
    <g id="Page-1" stroke="none" stroke-width="1" fill="none" fill-rule="evenodd">
        <g id="Artboard" transform="translate(-20.000000, -63.000000)" fill-rule="nonzero" fill="#333333">
            <g id="ico-文件夹" transform="translate(20.000000, 63.000000)">
                <path d="M12.7272791,1.80497146 L7.31305946,1.80497146 C6.98444882,1.80497146 6.71398548,1.55215879 6.68028074,1.22784384 C6.67953921,1.21247325 6.67851785,1.19720203 6.67724465,1.18198757 C6.67699281,1.17449388 6.67669899,1.1670002 6.67669899,1.15943554 L6.67669899,1.16162119 L6.67546776,1.16162119 C6.61147214,0.509287016 6.06886653,3.94190682e-16 5.40911283,3.94190682e-16 L1.2727349,0 C0.569944361,0 0,0.577908213 0,1.29104346 L0,10.8423041 C0,11.5553116 0.569916388,12.1333333 1.2727349,12.1333333 L12.7272791,12.1333333 C13.4300556,12.1333333 14,11.5553116 14,10.8423041 L14,3.09602911 C14,2.38289386 13.4300836,1.80497146 12.7272791,1.80497146 Z M13.3636535,10.8423041 C13.3636535,11.1988078 13.0786674,11.4878116 12.7272931,11.4878116 L1.2727349,11.4878116 C0.921248686,11.4878116 0.636374445,11.1988078 0.636374445,10.8423041 L0.636374445,3.74153664 L13.3636535,3.74153664 L13.3636535,10.8423041 Z M0.636374445,3.09602911 L0.636374445,1.29105765 C0.636374445,0.93461067 0.921248686,0.645535921 1.2727349,0.645535921 L5.40911285,0.645535921 C5.73793337,0.645535921 6.00848064,0.898618246 6.04193354,1.22316028 C6.04266108,1.23827539 6.04365446,1.25331955 6.04488567,1.26829273 C6.04515151,1.27585738 6.04545931,1.28342203 6.04545931,1.29105765 L6.04691438,1.29105765 C6.11191736,1.94234157 6.65404729,2.45049319 7.31304546,2.45049319 L12.7272931,2.45049319 C13.0786534,2.45049319 13.3636395,2.73956794 13.3636395,3.09601492 L0.636374445,3.09601492 L0.636374445,3.09602911 Z" id="Shape"></path>
            </g>
        </g>
    </g>
</svg>