<?xml version="1.0" encoding="UTF-8"?>
<svg width="161px" height="28px" viewBox="0 0 161 28" version="1.1" xmlns="http://www.w3.org/2000/svg" xmlns:xlink="http://www.w3.org/1999/xlink">
    <!-- Generator: Sketch 50.2 (55047) - http://www.bohemiancoding.com/sketch -->
    <title>logo</title>
    <desc>Created with Sketch.</desc>
    <defs></defs>
    <g id="dataworks" stroke="none" stroke-width="1" fill="none" fill-rule="evenodd">
        <g id="01-元数据管理-元数据查询详情" transform="translate(-29.000000, -16.000000)" fill-rule="nonzero">
            <g id="采集源配置_nav-">
                <g id="logo" transform="translate(29.000000, 16.000000)">
                    <g id="XMLID_71_" transform="translate(37.666667, 5.444444)" fill="#2F2F2F">
                        <path d="M9.00053043,4.65545546 L9.00053043,0 L12.3506421,0 L12.3506421,16.956957 L6.56127862,16.956957 C5.38796762,16.956957 4.49254606,16.8644645 3.89045226,16.6794795 C2.47012842,16.2324324 1.38944724,15.3383383 0.694723618,14.0126126 C0.200697934,13.1185185 0.0154383026,12.024024 0.0154383026,10.7445445 C0.0154383026,8.64804805 0.679285315,7.02942943 2.08417085,5.87327327 C3.01046901,5.1025025 4.26097152,4.67087087 5.83567839,4.67087087 L9.00053043,4.67087087 L9.00053043,4.65545546 Z M9.00053043,14.3363363 L9.00053043,7.27607608 L6.56127862,7.27607608 C5.48059743,7.27607608 4.6778057,7.67687688 4.1220268,8.4014014 C3.62800112,9.0026026 3.39642658,9.78878879 3.39642658,10.7445445 C3.39642658,12.1319319 3.79782245,13.1339339 4.60061418,13.7351351 C5.15639308,14.1359359 5.80480179,14.3363363 6.56127862,14.3363363 L9.00053043,14.3363363 Z" id="XMLID_91_"></path>
                        <path d="M23.1883305,9.4958959 C23.1883305,8.64804805 23.0185092,8.06226226 22.6788666,7.75395395 C22.3392239,7.44564565 21.6445003,7.30690691 20.6255723,7.30690691 L14.234115,7.30690691 L14.234115,4.68628629 L20.6255723,4.68628629 C21.6445003,4.68628629 22.3546622,4.7017017 22.7406198,4.74794795 C23.1265773,4.79419419 23.5279732,4.87127127 23.9293691,4.99459459 C25.7974037,5.7037037 26.6773869,7.38398398 26.5693188,10.0508509 L26.5693188,16.9415415 L19.4676996,16.9415415 C18.1863205,16.9415415 17.3063372,16.9107107 16.8277499,16.8336336 C16.3337242,16.7565566 16.0558347,16.6024024 15.6853155,16.3711712 C14.6972641,15.6928929 14.2032384,14.6908909 14.2032384,13.3343343 C14.2032384,12.5173173 14.4039363,11.7773774 14.7898939,11.1299299 C15.1912898,10.4824825 15.5772473,10.0508509 16.2256561,9.8042042 C16.7968733,9.6038038 17.7386097,9.4958959 19.0663037,9.4958959 L23.1883305,9.4958959 Z M23.1883305,12.1011011 L19.3133166,12.1011011 L18.7266611,12.1011011 C18.3407035,12.1011011 18.0319375,12.209009 17.8003629,12.4094094 C17.5687884,12.6098098 17.4607203,12.8872873 17.4607203,13.2418418 C17.4607203,13.6272272 17.599665,13.9047047 17.8775544,14.0742743 C18.1554439,14.2438438 18.6340313,14.3209209 19.2978783,14.3209209 L23.1728922,14.3209209 L23.1728922,12.1011011 L23.1883305,12.1011011 Z" id="XMLID_88_"></path>
                        <path d="M31.169933,4.64004004 L31.169933,0 L34.5509213,0 L34.5509213,4.64004004 L37.6694584,4.64004004 L37.6694584,7.26066066 L34.5509213,7.26066066 L34.5509213,11.761962 C34.5509213,12.7947948 34.6435511,13.4576577 34.8288107,13.7197197 C35.1067002,14.1205205 35.6161642,14.3209209 36.3417644,14.3209209 L37.6694584,14.3209209 L37.6694584,16.9415415 L35.2302066,16.9415415 C33.7635678,16.9415415 32.7292016,16.586987 32.1116695,15.8778779 C31.4941374,15.1687688 31.1853713,13.9971972 31.1853713,12.3323323 L31.1853713,7.24524525 L28.4064768,7.24524525 L28.4064768,4.62462462 L31.169933,4.62462462 L31.169933,4.64004004 Z" id="XMLID_86_"></path>
                        <path d="M48.4917085,9.51131131 C48.4917085,8.66346346 48.3218872,8.07767768 47.9822446,7.76936937 C47.6426019,7.46106106 46.9478783,7.32232232 45.9289503,7.32232232 L39.537493,7.32232232 L39.537493,4.64004004 L45.9289503,4.64004004 C46.9478783,4.64004004 47.6580402,4.65545546 48.0439978,4.7017017 C48.4299553,4.74794795 48.8313512,4.82502503 49.2327471,4.94834835 C51.1007817,5.65745746 51.9807649,7.3993994 51.8726968,10.0662663 L51.8726968,16.956957 L44.7710776,16.956957 C43.4896985,16.956957 42.6097152,16.9261261 42.1311279,16.849049 C41.6371022,16.771972 41.3900893,16.586987 41.0195701,16.3403403 C40.0315187,15.6620621 39.537493,14.6600601 39.537493,13.3035035 C39.537493,12.4864865 39.738191,11.7465465 40.1241485,11.0990991 C40.5255444,10.4516517 40.865187,10.0508509 41.5135958,9.81961962 C42.084813,9.61921922 43.0265494,9.51131131 44.3542434,9.51131131 L48.4917085,9.51131131 Z M48.4917085,12.1165165 L44.6166946,12.1165165 L44.0300391,12.1165165 C43.6440815,12.1165165 43.3353155,12.2244244 43.1037409,12.4248248 C42.8721664,12.6252252 42.7640983,12.9027027 42.7640983,13.2572573 C42.7640983,13.6426426 42.903043,13.9201201 43.1809324,14.0896897 C43.4588219,14.2592593 43.9374093,14.3363363 44.6012563,14.3363363 L48.4762702,14.3363363 L48.4762702,12.1165165 L48.4917085,12.1165165 Z" id="XMLID_83_"></path>
                        <path d="M59.8234227,14.3363363 L59.8234227,4.64004004 L63.2044109,4.64004004 L63.2044109,14.3363363 L65.8134841,14.3363363 L65.8134841,4.64004004 L69.1635958,4.64004004 L69.1635958,16.956957 L58.8662479,16.956957 C57.7392518,16.956957 56.8901452,16.8798799 56.3034897,16.7103103 C55.7168342,16.5407407 55.2228085,16.2478478 54.8368509,15.8316316 C54.0958124,15.03003 53.7252931,13.9201201 53.7252931,12.5173173 L53.7252931,4.65545546 L57.0754048,4.65545546 L57.0754048,11.9777778 C57.0754048,12.5635636 57.1062814,12.9797798 57.1680346,13.211011 C57.2297878,13.4422422 57.3378559,13.6580581 57.5076773,13.843043 C57.8627582,14.1821822 58.3876605,14.3517518 59.0978224,14.3517518 L59.8234227,14.3517518 L59.8234227,14.3363363 Z" id="XMLID_81_"></path>
                        <path d="M77.1915131,4.64004004 C79.3528755,4.64004004 80.9275824,5.56496496 81.9465103,6.81361361 C82.8882468,7.95435435 83.3668342,9.37257257 83.3668342,11.0990991 C83.3668342,12.9181181 82.7801787,14.3671672 81.5914294,15.4616617 C80.5107482,16.4482482 79.0132328,16.9415415 77.1297599,16.9415415 C75.1845338,16.9415415 73.6561418,16.3865866 72.544584,15.2612613 C71.5256561,14.2592593 71.0161921,12.7793794 71.0161921,10.8524525 C71.0161921,9.21841842 71.5102178,7.86186186 72.4828308,6.78278278 C73.563512,5.58038038 75.1382189,4.65545546 77.1915131,4.64004004 Z M77.2069514,7.13733734 C75.2771636,7.13733734 74.3045505,8.58638639 74.3045505,10.9757758 C74.3045505,11.9469469 74.4589336,12.6868869 74.7831379,13.1955956 C75.3080402,14.0588589 76.1262702,14.4904905 77.2223897,14.4904905 C79.1213009,14.4904905 80.0784757,13.3035035 80.0784757,10.9295295 C80.0784757,8.6018018 79.1213009,7.18358358 77.2069514,7.13733734 Z" id="XMLID_78_"></path>
                        <path d="M85.2194305,4.64004004 L89.7119765,4.64004004 C90.7309045,4.64004004 91.518258,4.71711712 92.0894752,4.85585586 C92.645254,4.99459459 93.1084031,5.24124124 93.4789224,5.58038038 C93.8494417,5.91951952 94.1118928,6.33573574 94.2508375,6.84444444 C94.3897822,7.35315315 94.4824121,8.06226226 94.4824121,9.0026026 L94.4824121,10.1895896 L91.2558068,10.1895896 L91.2558068,9.54214214 C91.2558068,8.66346346 91.1014238,8.07767768 90.808096,7.75395395 C90.49933,7.43023023 89.9281128,7.27607608 89.0635678,7.27607608 L88.6004188,7.27607608 L88.6004188,16.956957 L85.2194305,16.956957 L85.2194305,4.64004004 Z" id="XMLID_76_"></path>
                        <path d="M99.7159966,0 L99.7159966,9.55755756 L104.841513,4.64004004 L108.623897,4.64004004 L103.838023,9.55755756 L104.748883,9.55755756 C105.922194,9.55755756 106.740424,9.8966967 107.188135,10.5903904 C107.635846,11.2840841 107.86742,12.4864865 107.86742,14.2438438 L107.86742,16.956957 L104.486432,16.956957 L104.486432,14.0896897 C104.486432,13.3189189 104.362926,12.8102102 104.115913,12.5481481 C103.8689,12.2860861 102.757342,12.1627628 102.016304,12.1627628 L99.7159966,12.1627628 L99.7159966,16.956957 L96.3350084,16.956957 L96.3350084,0 L99.7159966,0 Z" id="XMLID_74_"></path>
                        <path d="M122.873451,4.64004004 L122.888889,7.32232232 L115.926214,7.32232232 C115.231491,7.32232232 114.799218,7.35315315 114.613959,7.43023023 C114.228001,7.56896897 114.027303,7.89269269 114.027303,8.41681682 C114.027303,8.84844845 114.212563,9.18758759 114.583082,9.41881882 C114.78378,9.55755756 115.324121,9.61921922 116.219542,9.61921922 L118.211083,9.61921922 C119.477024,9.61921922 120.928224,9.85045045 121.653825,10.38999 C122.472055,10.9911912 122.888889,11.8852853 122.888889,13.0568569 C122.888889,13.950951 122.641876,14.7525526 122.132412,15.4924925 C121.761893,16.0782783 121.314182,16.4636637 120.78928,16.6486486 C120.264377,16.8336336 118.936683,16.9723724 117.701619,16.9723724 L110.538247,16.9723724 L110.538247,14.3517518 L116.729006,14.3517518 C117.470045,14.3517518 117.979509,14.3363363 118.24196,14.3209209 C118.844054,14.2592593 119.15282,13.9047047 119.15282,13.2880881 C119.15282,12.7793794 118.952122,12.4402402 118.550726,12.2552553 C118.350028,12.1473473 117.856002,12.1011011 117.084087,12.1011011 L115.046231,12.1011011 C114.243439,12.1011011 113.625907,12.0548549 113.193635,11.9469469 C112.761362,11.839039 112.359966,11.6694695 111.989447,11.391992 C111.541736,11.0682683 111.171217,10.6366366 110.924204,10.0662663 C110.661753,9.51131131 110.538247,8.91011011 110.538247,8.26266266 C110.538247,7.04484484 110.985958,6.01201201 111.881379,5.28748749 C112.42172,4.85585586 113.363456,4.64004004 114.69115,4.64004004 L122.873451,4.64004004 Z" id="XMLID_72_"></path>
                    </g>
                    <g id="XMLID_135_" fill="#FF6E0B">
                        <path d="M12.2148594,28 C11.9365462,28 11.6582329,27.9226519 11.4108434,27.7679558 L0.850401606,21.3480663 C0.371084337,21.0541436 0.0927710843,20.5436464 0.0927710843,19.9867403 L0.35562249,7.62651934 C0.371084337,7.06961326 0.680321285,6.55911602 1.15963855,6.2961326 L11.9983936,0.340331492 C12.4931727,0.0773480663 13.0807229,0.0928176796 13.5600402,0.371270718 L24.1204819,6.79116022 C24.5997992,7.08508287 24.8781124,7.61104972 24.8781124,8.1679558 C24.8626506,8.72486188 24.5534137,9.23535912 24.0586345,9.49834254 L11.7046185,16.1657459 C10.946988,16.5679558 10.0038153,16.2895028 9.58634538,15.5314917 C9.18433735,14.7734807 9.4626506,13.8298343 10.2202811,13.4121547 L20.1777108,8.0441989 L12.7096386,3.51160221 L3.44799197,8.60110497 L3.21606426,19.1668508 L12.2457831,24.6430939 L22.2959839,19.120442 C23.0536145,18.7027624 23.9967871,18.9812155 24.414257,19.7392265 C24.8317269,20.4972376 24.5534137,21.440884 23.7957831,21.8585635 L12.9570281,27.8143646 C12.7251004,27.9381215 12.4777108,28 12.2148594,28 Z" id="XMLID_145_"></path>
                        <path d="M13.0188755,21.641989 C12.462249,21.641989 11.9365462,21.3480663 11.6427711,20.8220994 C11.2253012,20.0640884 11.5190763,19.120442 12.261245,18.7027624 L23.3319277,12.6850829 C24.0895582,12.2674033 25.0327309,12.561326 25.4502008,13.3038674 C25.8676707,14.0618785 25.5738956,15.0055249 24.8317269,15.4232044 L13.7610442,21.4563536 C13.5291165,21.5801105 13.2662651,21.641989 13.0188755,21.641989 Z" id="XMLID_146_"></path>
                    </g>
                </g>
            </g>
        </g>
    </g>
</svg>