<?xml version="1.0" encoding="UTF-8"?>
<svg xmlns:xlink="http://www.w3.org/1999/xlink" width="16px" height="16px" viewBox="0 0 16 16" version="1.1" xmlns="http://www.w3.org/2000/svg">
    <!-- Generator: Sketch 50.2 (55047) - http://www.bohemiancoding.com/sketch -->
    <title>角色管理</title>
    <desc>Created with Sketch.</desc>
    <defs></defs>
    <g id="分析桌面" stroke="none" stroke-width="1" fill="none" fill-rule="evenodd">
        <g id="07-分析门户--侧边菜单" transform="translate(-1281.000000, -22.000000)" fill="#333333" fill-rule="nonzero">
            <g id="nav_DAP">
                <g id="角色管理" transform="translate(1281.000000, 22.000000)">
                    <path d="M12.4362227,8.34882349 C11.6572714,8.86772161 10.7253297,9.1691767 9.72239236,9.1691767 C8.72245486,9.1691767 7.79351292,8.86969835 7.01756141,8.35475376 C4.91569278,9.37080568 3.46378351,11.5304102 3.46378351,14.0300165 C3.46378351,16.6749143 16,16.6383444 16,14.0300165 C15.9990001,11.5244799 14.544091,9.36191028 12.4362227,8.34882349 Z M5.50865571,4.2332202 C5.50865571,1.89570777 7.39453785,0 9.72239236,0 C12.0502469,0 13.936129,1.89471938 13.936129,4.2332202 C13.936129,6.57073263 12.0502469,8.46446365 9.72239236,8.46446365 C7.39453783,8.46446365 5.50865571,6.57073265 5.50865571,4.2332202 Z M2.72082994,14.2494363 C2.72082994,14.3462973 2.73582901,14.4382164 2.7648272,14.5291471 C1.18192613,14.2751341 0,13.7740268 0,13.0189065 C0,10.8553485 1.2559215,8.98632688 3.07580776,8.10667104 C3.71076807,8.52870816 4.46672082,8.78370952 5.2816699,8.81039571 C3.71776763,10.1022049 2.72082994,12.0591921 2.72082994,14.2494363 Z M4.80769952,4.2332202 C4.80769952,3.15885402 5.14967815,2.16454641 5.73064183,1.35407698 C5.62864821,1.34518158 5.52765453,1.34122807 5.4256609,1.34122807 C3.50978064,1.34122807 1.9568777,2.90088754 1.9568777,4.82525825 C1.9568777,6.74962896 3.50878071,8.30928842 5.42466097,8.30928842 C5.85563404,8.30928842 6.26860823,8.23021824 6.64858447,8.08492676 C5.52665458,7.18056146 4.80769952,5.79189129 4.80769952,4.2332202 Z" id="Shape"></path>
                </g>
            </g>
        </g>
    </g>
</svg>
