<?xml version="1.0" encoding="UTF-8"?>
<svg width="80px" height="80px" viewBox="0 0 80 80" version="1.1" xmlns="http://www.w3.org/2000/svg" xmlns:xlink="http://www.w3.org/1999/xlink">
    <!-- Generator: Sketch 52.2 (67145) - http://www.bohemiancoding.com/sketch -->
    <title>图表 柱状图</title>
    <desc>Created with Sketch.</desc>
    <g id="dataworks" stroke="none" stroke-width="1" fill="none" fill-rule="evenodd">
        <g id="24.1-数据质量管理-检核结果为空" transform="translate(-1022.000000, -318.000000)" fill="#DDDDDD">
            <g id="cont" transform="translate(212.000000, 73.000000)">
                <g id="图表-柱状图" transform="translate(810.000000, 245.000000)">
                    <path d="M0.19815749,0.68414983 C0.19815749,0.560314654 0.241828356,0.436573958 0.329170089,0.342046535 C0.416599216,0.24762304 0.53105936,0.200411292 0.645615637,0.200411292 L3.47650505,0.200411292 C3.59105259,0.200411292 3.70551274,0.24762304 3.7929506,0.342046535 C3.88029234,0.43656451 3.9239632,0.560305206 3.9239632,0.68414983 L3.9239632,75.388308 L79.2350148,75.388308 C79.349475,75.388308 79.4641099,75.4355197 79.5513642,75.5300472 C79.6387934,75.6244707 79.682473,75.7483058 79.682473,75.8720465 L79.682473,78.9324675 C79.682473,79.0562082 79.6388021,79.1801379 79.5513642,79.2744669 C79.4640225,79.3689849 79.349475,79.4162061 79.2350148,79.4162061 L0.19815749,79.4162061 L0.198174968,0.684168726 L0.19815749,0.68414983 Z" id="路径"></path>
                    <path d="M27.5209395,1.65162691 C27.5209395,1.28021586 27.6519521,0.908795362 27.9141696,0.625524877 C28.1762909,0.342150463 28.5198462,0.200411292 28.863314,0.200411292 L41.0818928,0.200411292 C41.425448,0.200411292 41.769012,0.342046535 42.0310372,0.625524877 C42.2931585,0.90889929 42.4242673,1.28031034 42.4242673,1.65162691 L42.4242673,70.017582 L27.5209395,70.017582 L27.5209395,1.65162691 Z" id="路径"></path>
                    <path d="M8.89182359,21.7911172 C8.89182359,21.4197062 9.02283619,21.0482857 9.28505366,20.7650152 C9.54717499,20.4816408 9.89073021,20.3399016 10.234198,20.3399016 L22.4527769,20.3399016 C22.7963321,20.3399016 23.139896,20.4815369 23.4019212,20.7650152 C23.6640426,21.0483896 23.7951513,21.4198007 23.7951513,21.7911172 L23.7951513,70.017582 L8.89182359,70.017582 L8.89182359,21.7911172 Z" id="路径"></path>
                    <path d="M46.1501429,41.9307965 C46.1501429,41.5593855 46.2812516,41.187965 46.543373,40.9046945 C46.8054943,40.621424 47.1490495,40.4795809 47.4925173,40.4795809 L59.7110962,40.4795809 C60.0546514,40.4795809 60.3982154,40.6213201 60.6602406,40.9046945 C60.9222658,41.1880689 61.0534706,41.55948 61.0534706,41.9307965 L61.0534706,70.017582 L46.1501429,70.017582 L46.1501429,41.9307965 Z" id="路径"></path>
                    <path d="M64.7792589,62.0703814 C64.7792589,61.6989703 64.9103676,61.3275498 65.1724889,61.0442793 C65.4346103,60.7610088 65.7781655,60.6191657 66.1216333,60.6191657 L78.3402121,60.6191657 C78.6837674,60.6191657 79.0273313,60.7609049 79.2893565,61.0442793 C79.5513817,61.3276537 79.6825866,61.6990648 79.6825866,62.0703814 L79.6825866,70.0177237 L64.7792589,70.0177237 L64.7792589,62.0703814 Z" id="路径"></path>
                </g>
            </g>
        </g>
    </g>
</svg>