<?xml version="1.0" encoding="UTF-8"?>
<svg width="132px" height="107px" viewBox="0 0 132 107" version="1.1" xmlns="http://www.w3.org/2000/svg" xmlns:xlink="http://www.w3.org/1999/xlink">
    <!-- Generator: Sketch 52.4 (67378) - http://www.bohemiancoding.com/sketch -->
    <title>未显示标识字段</title>
    <desc>Created with Sketch.</desc>
    <g id="dataworks" stroke="none" stroke-width="1" fill="none" fill-rule="evenodd">
        <g id="24.1-数据质量管理-检核结果-详情" transform="translate(-755.000000, -241.000000)">
            <g id="未显示标识字段" transform="translate(754.000000, 236.000000)">
                <g id="分组-copy" transform="translate(53.895063, 57.112445) rotate(-22.000000) translate(-53.895063, -57.112445) translate(14.395063, 12.112445)">
                    <rect id="矩形" stroke="#D3D3D3" fill="#FFFFFF" fill-rule="nonzero" x="0.5" y="0.5" width="69.2437956" height="88.1803924" rx="4"></rect>
                    <path d="M20.949904,36.0655999 L48.0615444,36.0655999" id="直线" stroke="#8D8D8D" stroke-width="2" stroke-linecap="square" fill-rule="nonzero"></path>
                    <path d="M20.949904,55.7377453 L48.0615444,55.7377453" id="直线-copy-2" stroke="#8D8D8D" stroke-width="2" stroke-linecap="square" fill-rule="nonzero"></path>
                    <path d="M20.949904,75.4098907 L48.0615444,75.4098907" id="直线-copy-4" stroke="#8D8D8D" stroke-width="2" stroke-linecap="square" fill-rule="nonzero"></path>
                    <path d="M20.949904,43.934458 L64.0820592,43.934458" id="直线-copy" stroke="#8D8D8D" stroke-width="2" stroke-linecap="square" fill-rule="nonzero"></path>
                    <path d="M20.949904,63.6066034 L64.0820592,63.6066034" id="直线-copy-3" stroke="#8D8D8D" stroke-width="2" stroke-linecap="square" fill-rule="nonzero"></path>
                    <path d="M20.949904,83.2787488 L64.0820592,83.2787488" id="直线-copy-5" stroke="#8D8D8D" stroke-width="2" stroke-linecap="square" fill-rule="nonzero"></path>
                    <rect id="矩形" fill="#D3D3D3" fill-rule="nonzero" x="7.39408375" y="10.4918109" width="55.4556281" height="17.0491927"></rect>
                    <text id="标识字段" font-family="PingFangSC-Regular, PingFang SC" font-size="8" font-weight="normal" fill="#6C6C6C">
                        <tspan x="14.7881675" y="22.4836218">标识字段</tspan>
                    </text>
                    <g id="错" transform="translate(7.394084, 35.409862)" fill="#8E8E8E" fill-rule="nonzero">
                        <path d="M8.31550219,1.10702107 L1.04022799,8.84944091 C0.840994265,9.06146743 0.51573363,9.06146743 0.310939897,8.84944091 C0.111706174,8.63741438 0.111706174,8.29126875 0.310939897,8.0733252 L7.5862141,0.33090536 C7.78544782,0.118878832 8.11070845,0.118878832 8.31550219,0.33090536 C8.51473591,0.548848906 8.51473591,0.894994539 8.31550219,1.10702107 Z M8.31550219,8.84944091 C8.11626846,9.06146743 7.79100783,9.06146743 7.5862141,8.84944091 L0.310939897,1.10702107 C0.111706174,0.894994539 0.111706174,0.548848906 0.310939897,0.33090536 C0.510173619,0.118878832 0.835434254,0.118878832 1.04022799,0.33090536 L8.31550219,8.0733252 C8.51473591,8.29126875 8.51473591,8.63741438 8.31550219,8.84944091 Z" id="形状"></path>
                    </g>
                    <g id="错-copy" transform="translate(7.394084, 56.393483)" fill="#8E8E8E" fill-rule="nonzero">
                        <path d="M8.31550219,1.10702107 L1.04022799,8.84944091 C0.840994265,9.06146743 0.51573363,9.06146743 0.310939897,8.84944091 C0.111706174,8.63741438 0.111706174,8.29126875 0.310939897,8.0733252 L7.5862141,0.33090536 C7.78544782,0.118878832 8.11070845,0.118878832 8.31550219,0.33090536 C8.51473591,0.548848906 8.51473591,0.894994539 8.31550219,1.10702107 Z M8.31550219,8.84944091 C8.11626846,9.06146743 7.79100783,9.06146743 7.5862141,8.84944091 L0.310939897,1.10702107 C0.111706174,0.894994539 0.111706174,0.548848906 0.310939897,0.33090536 C0.510173619,0.118878832 0.835434254,0.118878832 1.04022799,0.33090536 L8.31550219,8.0733252 C8.51473591,8.29126875 8.51473591,8.63741438 8.31550219,8.84944091 Z" id="形状"></path>
                    </g>
                    <g id="错-copy-2" transform="translate(7.394084, 74.754152)" fill="#8E8E8E" fill-rule="nonzero">
                        <path d="M8.31550219,1.10702107 L1.04022799,8.84944091 C0.840994265,9.06146743 0.51573363,9.06146743 0.310939897,8.84944091 C0.111706174,8.63741438 0.111706174,8.29126875 0.310939897,8.0733252 L7.5862141,0.33090536 C7.78544782,0.118878832 8.11070845,0.118878832 8.31550219,0.33090536 C8.51473591,0.548848906 8.51473591,0.894994539 8.31550219,1.10702107 Z M8.31550219,8.84944091 C8.11626846,9.06146743 7.79100783,9.06146743 7.5862141,8.84944091 L0.310939897,1.10702107 C0.111706174,0.894994539 0.111706174,0.548848906 0.310939897,0.33090536 C0.510173619,0.118878832 0.835434254,0.118878832 1.04022799,0.33090536 L8.31550219,8.0733252 C8.51473591,8.29126875 8.51473591,8.63741438 8.31550219,8.84944091 Z" id="形状"></path>
                    </g>
                    <polygon id="路径-7" fill="#8E8E8E" fill-rule="nonzero" points="46.8291971 69.508247 52.9909335 69.508247 46.8291971 62.9508653"></polygon>
                    <polygon id="路径-8" fill="#8E8E8E" fill-rule="nonzero" points="54.9074202 68.1967707 76.4055321 44.961198 76.4055321 42.2594508 72.8217338 38.0328144 69.5418117 38.0328144 48.0615444 60.9114323"></polygon>
                    <polygon id="路径-9" fill="#8E8E8E" fill-rule="nonzero" points="72.7084902 37.4053169 76.2261434 40.6557671 78.8702267 38.6005658 75.3006518 35.4098617"></polygon>
                    <path d="M76.4055321,47.2131489 L64.0820592,60.3279125" id="路径-10" stroke="#FF7575" stroke-width="2" fill-rule="nonzero"></path>
                </g>
                <g id="分组" transform="translate(30.000000, 16.000000)">
                    <rect id="矩形" stroke="#D3D3D3" fill="#FFFFFF" fill-rule="nonzero" x="0.5" y="0.5" width="69.7349398" height="87" rx="4"></rect>
                    <path d="M21.0963855,35.5882353 L48.3975904,35.5882353" id="直线" stroke="#D3D3D3" stroke-width="2" stroke-linecap="square" fill-rule="nonzero"></path>
                    <path d="M21.0963855,55 L48.3975904,55" id="直线-copy-2" stroke="#D3D3D3" stroke-width="2" stroke-linecap="square" fill-rule="nonzero"></path>
                    <path d="M21.0963855,74.4117647 L48.3975904,74.4117647" id="直线-copy-4" stroke="#D3D3D3" stroke-width="2" stroke-linecap="square" fill-rule="nonzero"></path>
                    <path d="M21.0963855,43.3529412 L64.5301205,43.3529412" id="直线-copy" stroke="#D3D3D3" stroke-width="2" stroke-linecap="square" fill-rule="nonzero"></path>
                    <path d="M21.0963855,62.7647059 L64.5301205,62.7647059" id="直线-copy-3" stroke="#D3D3D3" stroke-width="2" stroke-linecap="square" fill-rule="nonzero"></path>
                    <path d="M21.0963855,82.1764706 L64.5301205,82.1764706" id="直线-copy-5" stroke="#D3D3D3" stroke-width="2" stroke-linecap="square" fill-rule="nonzero"></path>
                    <rect id="矩形" fill="#D3D3D3" fill-rule="nonzero" x="7.44578313" y="10.3529412" width="55.8433735" height="16.8235294"></rect>
                    <text id="标识字段" font-family="PingFangSC-Regular, PingFang SC" font-size="10" font-weight="normal" fill="#6C6C6C">
                        <tspan x="16.018839" y="21.7697121">标识字段</tspan>
                    </text>
                    <g id="错" transform="translate(7.445783, 34.941176)" fill="#8E8E8E" fill-rule="nonzero">
                        <path d="M8.37364412,1.09236853 L1.04750125,8.73230963 C0.846874491,8.94152977 0.519339636,8.94152977 0.313113986,8.73230963 C0.112487223,8.52308949 0.112487223,8.18152544 0.313113986,7.9664666 L7.63925685,0.326525493 C7.83988362,0.117305351 8.16741847,0.117305351 8.37364412,0.326525493 C8.57427088,0.541584337 8.57427088,0.883148384 8.37364412,1.09236853 Z M8.37364412,8.73230963 C8.17301736,8.94152977 7.8454825,8.94152977 7.63925685,8.73230963 L0.313113986,1.09236853 C0.112487223,0.883148384 0.112487223,0.541584337 0.313113986,0.326525493 C0.513740749,0.117305351 0.841275604,0.117305351 1.04750125,0.326525493 L8.37364412,7.9664666 C8.57427088,8.18152544 8.57427088,8.52308949 8.37364412,8.73230963 Z" id="形状"></path>
                    </g>
                    <g id="错-copy" transform="translate(7.445783, 55.647059)" fill="#8E8E8E" fill-rule="nonzero">
                        <path d="M8.37364412,1.09236853 L1.04750125,8.73230963 C0.846874491,8.94152977 0.519339636,8.94152977 0.313113986,8.73230963 C0.112487223,8.52308949 0.112487223,8.18152544 0.313113986,7.9664666 L7.63925685,0.326525493 C7.83988362,0.117305351 8.16741847,0.117305351 8.37364412,0.326525493 C8.57427088,0.541584337 8.57427088,0.883148384 8.37364412,1.09236853 Z M8.37364412,8.73230963 C8.17301736,8.94152977 7.8454825,8.94152977 7.63925685,8.73230963 L0.313113986,1.09236853 C0.112487223,0.883148384 0.112487223,0.541584337 0.313113986,0.326525493 C0.513740749,0.117305351 0.841275604,0.117305351 1.04750125,0.326525493 L8.37364412,7.9664666 C8.57427088,8.18152544 8.57427088,8.52308949 8.37364412,8.73230963 Z" id="形状"></path>
                    </g>
                    <g id="错-copy-2" transform="translate(7.445783, 73.764706)" fill="#8E8E8E" fill-rule="nonzero">
                        <path d="M8.37364412,1.09236853 L1.04750125,8.73230963 C0.846874491,8.94152977 0.519339636,8.94152977 0.313113986,8.73230963 C0.112487223,8.52308949 0.112487223,8.18152544 0.313113986,7.9664666 L7.63925685,0.326525493 C7.83988362,0.117305351 8.16741847,0.117305351 8.37364412,0.326525493 C8.57427088,0.541584337 8.57427088,0.883148384 8.37364412,1.09236853 Z M8.37364412,8.73230963 C8.17301736,8.94152977 7.8454825,8.94152977 7.63925685,8.73230963 L0.313113986,1.09236853 C0.112487223,0.883148384 0.112487223,0.541584337 0.313113986,0.326525493 C0.513740749,0.117305351 0.841275604,0.117305351 1.04750125,0.326525493 L8.37364412,7.9664666 C8.57427088,8.18152544 8.57427088,8.52308949 8.37364412,8.73230963 Z" id="形状"></path>
                    </g>
                    <polygon id="路径-7" fill="#D3D3D3" fill-rule="nonzero" points="63.2891566 71.1764706 70.7349398 71.1764706 63.2891566 63.4117647"></polygon>
                    <polygon id="路径-8" fill="#D3D3D3" fill-rule="nonzero" points="72.6227743 69.8823529 98.0361446 42.9668436 98.0361446 39.8372068 93.7996613 34.9411765 89.9223964 34.9411765 64.5301205 61.4431982"></polygon>
                    <polygon id="路径-9" fill="#D3D3D3" fill-rule="nonzero" points="95.5542169 33.5201277 99.8049151 37.5294118 103 34.9944134 98.68656 31.0588235"></polygon>
                    <path d="M98.0361446,47.1664581 L83.1445783,62.6958698" id="路径-10" stroke="#D3D3D3" fill-rule="nonzero"></path>
                </g>
            </g>
        </g>
    </g>
</svg>