<?xml version="1.0" standalone="no"?><!DOCTYPE svg PUBLIC "-//W3C//DTD SVG 1.1//EN" "http://www.w3.org/Graphics/SVG/1.1/DTD/svg11.dtd"><svg t="1491034558773" class="icon" style="" viewBox="0 0 1024 1024" version="1.1" xmlns="http://www.w3.org/2000/svg" p-id="6713" xmlns:xlink="http://www.w3.org/1999/xlink" width="16" height="16"><defs><style type="text/css"></style></defs><path d="M533.071729 937.476902c12.385016 12.385016 29.242399 19.437594 46.615823 19.437595 17.545439 0 34.402822-7.052579 46.615824-19.437595l373.442634-373.442634c13.589115-13.589115 19.609609-31.650596 18.749538-49.540063 0.860071-17.889467-5.160423-35.950949-18.749538-49.540064l-373.270619-373.614648c-26.146145-24.081975-66.397447-23.221905-91.511507 1.892155-25.11406 25.11406-25.974131 65.537376-1.892155 91.511507l329.751049 329.75105-329.751049 329.579035c-12.385016 12.385016-19.437594 29.242399-19.437595 46.615824 0 17.717453 7.052579 34.402822 19.437595 46.787838zM357.101293 514.494205L27.522258 844.07324C3.440282 870.219385 4.300353 910.642701 29.414413 935.756761c25.11406 25.11406 65.537376 25.974131 91.511507 1.892156l373.442634-373.614649c13.589115-13.589115 19.609609-31.650596 18.749538-49.540063 0.860071-17.889467-5.160423-35.950949-18.749538-49.540064L120.92592 91.339493c-26.146145-24.081975-66.397447-23.221905-91.511507 1.892155C4.300353 118.345708 3.440282 158.59701 27.522258 184.743155l329.579035 329.75105z" p-id="6714" fill="#4f90d4"></path></svg>