<?xml version="1.0" standalone="no"?><!DOCTYPE svg PUBLIC "-//W3C//DTD SVG 1.1//EN" "http://www.w3.org/Graphics/SVG/1.1/DTD/svg11.dtd"><svg t="1491033620736" class="icon" style="" viewBox="0 0 1024 1024" version="1.1" xmlns="http://www.w3.org/2000/svg" p-id="1442" xmlns:xlink="http://www.w3.org/1999/xlink" width="16" height="16"><defs><style type="text/css"></style></defs><path d="M495.744667 93.231648c-12.385016-12.385016-29.242399-19.437594-46.615824-19.437595-17.545439 0-34.402822 7.052579-46.615824 19.437595L28.726356 466.674282c-13.589115 13.589115-19.609609 31.650596-18.749538 49.540064-0.860071 17.889467 5.160423 35.950949 18.749538 49.540064l373.442634 373.614648c26.146145 24.081975 66.397447 23.221905 91.511507-1.892156 25.11406-25.11406 25.974131-65.537376 1.892155-91.511506L165.993617 516.214346 495.744667 186.463296c12.385016-12.385016 19.437594-29.242399 19.437594-46.615824-0.172014-17.545439-7.052579-34.230808-19.437594-46.615824z m175.970435 422.982698L1001.466152 186.463296c24.081975-26.146145 23.221905-66.397447-1.892156-91.511507-25.11406-25.11406-65.537376-25.974131-91.511506-1.892155L534.447841 466.846296c-13.589115 13.589115-19.609609 31.650596-18.749538 49.540064-0.860071 17.889467 5.160423 35.950949 18.749538 49.540064l373.442634 373.614648c26.146145 24.081975 66.397447 23.221905 91.511507-1.892155 25.11406-25.11406 25.974131-65.537376 1.892155-91.511507L671.715102 516.214346z" p-id="1443" fill="#4f90d4"></path></svg>