<?xml version="1.0" standalone="no"?><!DOCTYPE svg PUBLIC "-//W3C//DTD SVG 1.1//EN" "http://www.w3.org/Graphics/SVG/1.1/DTD/svg11.dtd"><svg t="1546847954229" class="icon" style="" viewBox="0 0 1024 1024" version="1.1" xmlns="http://www.w3.org/2000/svg" p-id="3983" xmlns:xlink="http://www.w3.org/1999/xlink" width="200" height="200"><defs><style type="text/css"></style></defs><path d="M959.9 432v-0.1-1.5-0.6c0-0.3 0-0.7-0.1-1 0-0.3-0.1-0.5-0.1-0.8 0-0.3-0.1-0.5-0.1-0.8 0-0.3-0.1-0.6-0.1-0.8 0-0.2-0.1-0.5-0.1-0.7-0.1-0.3-0.1-0.6-0.2-0.9-0.1-0.2-0.1-0.4-0.2-0.7-0.1-0.3-0.1-0.6-0.2-0.8-0.1-0.2-0.1-0.4-0.2-0.7-0.1-0.3-0.2-0.5-0.3-0.8-0.1-0.2-0.2-0.5-0.2-0.7-0.1-0.2-0.2-0.5-0.3-0.7-0.1-0.2-0.2-0.5-0.3-0.7-0.1-0.2-0.2-0.4-0.3-0.7-0.1-0.3-0.2-0.5-0.3-0.8l-0.3-0.6c-0.1-0.3-0.3-0.5-0.4-0.8l-0.3-0.6c-0.1-0.3-0.3-0.5-0.4-0.8-0.1-0.2-0.2-0.4-0.4-0.6-0.2-0.2-0.3-0.5-0.5-0.7-0.1-0.2-0.3-0.4-0.4-0.6-0.2-0.2-0.3-0.4-0.5-0.6-0.2-0.3-0.4-0.5-0.6-0.7-0.1-0.2-0.3-0.3-0.4-0.5-0.3-0.4-0.6-0.7-0.9-1.1l-0.1-0.1L654.4 82.9c-1.7-1.9-3.6-3.5-5.6-4.9-5.7-8.8-15.6-14.6-26.8-14.6H127.9c-35.3 0-64 28.7-64 64v768c0 35.3 28.7 64 64 64h768c35.3 0 64-28.7 64-64V432z m-832 463.5v-768h480.5l287.5 316.9v451.1h-768z" p-id="3984" fill="#4c7daa"></path><path d="M755 561H251c-17.7 0-32-14.3-32-32s14.3-32 32-32h504c17.7 0 32 14.3 32 32s-14.3 32-32 32z" p-id="3985" fill="#4c7daa"></path><path d="M503 805c-17.7 0-32-14.3-32-32V303c0-17.7 14.3-32 32-32s32 14.3 32 32v470c0 17.7-14.3 32-32 32z" p-id="3986" fill="#4c7daa"></path></svg>