<?xml version="1.0" standalone="no"?><!DOCTYPE svg PUBLIC "-//W3C//DTD SVG 1.1//EN" "http://www.w3.org/Graphics/SVG/1.1/DTD/svg11.dtd"><svg t="1547026091273" class="icon" style="" viewBox="0 0 1024 1024" version="1.1" xmlns="http://www.w3.org/2000/svg" p-id="6904" xmlns:xlink="http://www.w3.org/1999/xlink" width="200" height="200"><defs><style type="text/css"></style></defs><path d="M959.9 304.5V269.8v-0.1-1.7-1.6c0-0.5-0.1-1-0.1-1.5 0-0.6-0.1-1.3-0.1-1.9 0-0.3-0.1-0.6-0.1-0.9-0.1-0.8-0.2-1.6-0.3-2.5v-0.1c-4.6-29.4-28.4-52.5-58.2-55.9-0.3 0-0.5-0.1-0.8-0.1-0.7-0.1-1.3-0.1-2-0.2-0.5 0-0.9-0.1-1.4-0.1h-3.4H442.5c-20.6 0-37.3-16.8-37.3-37.3v-1.1c-0.6-55.4-45.8-100.2-101.3-100.2H130.5c-36.8 0-66.7 29.9-66.7 66.7V894c0 36.8 29.9 66.7 66.7 66.7H927.9c17.7 0 32-14.3 32-32V305.3c-0.1-0.3 0-0.5 0-0.8z m-829.4-176h173.3c20.6 0 37.3 16.7 37.3 37.4 0 55.8 45.4 101.2 101.3 101.3h451.4c0.1 0 0.1 0 0.2 0.1 1.1 0.3 1.9 1.3 1.9 2.6v141.4h-768v-280c-0.1-1.6 1.1-2.8 2.6-2.8z m-2.7 765.3V475.2h768v421.3H130.5c-1.5 0-2.7-1.2-2.7-2.7z" p-id="6905" fill="#4c7daa"></path></svg>