<?xml version="1.0" encoding="UTF-8"?>
<svg width="10px" height="12px" viewBox="0 0 10 12" version="1.1" xmlns="http://www.w3.org/2000/svg" xmlns:xlink="http://www.w3.org/1999/xlink">
    <!-- Generator: Sketch 50.2 (55047) - http://www.bohemiancoding.com/sketch -->
    <title>密码</title>
    <desc>Created with Sketch.</desc>
    <defs>
        <polygon id="path-1" points="0.00123076923 0.00445128205 0.00123076923 11.9999795 9.42508718 11.9999795 9.42508718 0.00445128205"></polygon>
    </defs>
    <g id="Design" stroke="none" stroke-width="1" fill="none" fill-rule="evenodd">
        <g id="首页" transform="translate(-589.000000, -392.000000)">
            <g id="密码" transform="translate(589.000000, 392.000000)">
                <mask id="mask-2" fill="white">
                    <use xlink:href="#path-1"></use>
                </mask>
                <g id="Clip-2"></g>
                <path d="M8.13981538,5.14539487 L8.13981538,3.43177436 C8.13981538,3.43177436 8.18252308,0.00445128205 4.71257436,0.00445128205 C1.28486154,0.00445128205 1.28525128,3.43177436 1.28525128,3.43177436 L1.28525128,5.14539487 L0,5.14539487 L0,11.9999795 L9.42508718,11.9999795 L9.42508718,5.14539487 L8.13981538,5.14539487 Z M5.14094359,8.57271795 L5.14094359,10.286359 L4.28414359,10.286359 L4.28414359,8.57271795 C3.92186667,8.57271795 3.85569231,8.08843077 3.85569231,7.7158359 C3.85569231,7.29772308 4.16867692,6.85862564 4.71257436,6.85862564 C5.26914872,6.85862564 5.56978462,7.26527179 5.56939487,7.7158359 C5.56939487,8.24387692 5.45721026,8.57271795 5.14094359,8.57271795 Z M7.28301538,5.14539487 L2.14207179,5.14539487 L2.14207179,3.43177436 C2.14687179,3.01751795 2.23645128,0.861271795 4.71257436,0.861271795 C7.10184615,0.861271795 7.27819487,3.024 7.28301538,3.43177436 L7.28301538,5.14539487 Z" id="Fill-1" fill="#BCBCBC" mask="url(#mask-2)"></path>
            </g>
        </g>
    </g>
</svg>