<?xml version="1.0" encoding="UTF-8"?>
<svg width="11px" height="12px" viewBox="0 0 11 12" version="1.1" xmlns="http://www.w3.org/2000/svg" xmlns:xlink="http://www.w3.org/1999/xlink">
    <!-- Generator: Sketch 50.2 (55047) - http://www.bohemiancoding.com/sketch -->
    <title>Shape</title>
    <desc>Created with Sketch.</desc>
    <defs></defs>
    <g id="分析桌面" stroke="none" stroke-width="1" fill="none" fill-rule="evenodd">
        <g id="首页" transform="translate(-589.000000, -433.000000)" fill="#BCBCBC" fill-rule="nonzero">
            <g id="emi验证码" transform="translate(589.000000, 433.000000)">
                <path d="M9.72865978,1.48344308 C9.6173271,1.4871206 9.50818856,1.48848988 9.40169112,1.48848988 C6.59259264,1.48848988 5.35489009,0.295100253 5.34424442,0.284165538 L5.06402328,0 L4.78270507,0.284165538 C4.77118581,0.296469534 3.55832993,1.48848988 0.725583427,1.48848988 C0.618760933,1.48848988 0.510353775,1.4871206 0.397903696,1.48344308 L0.00395256522,1.4709826 L0.00395256522,6.88194279 C0.00395256522,8.29876042 0.51407164,10.3659097 4.92554816,11.9466893 L5.06323093,11.9963748 L5.20085277,11.9466893 C9.612309,10.3658315 10.1225296,8.29876042 10.1225296,6.88194279 L10.1225296,1.4709826 L9.72865978,1.48344308 Z M4.62984611,8.28195736 L2.08794611,6.06121358 L2.76282943,5.52230253 L4.11448547,6.50493978 C4.11448547,6.50493978 5.98040507,4.60108742 7.78267409,3.71150278 L8.03971445,3.99782005 C8.03971445,3.99782005 5.78764512,5.838568 4.62984611,8.28195736 Z" id="Shape"></path>
            </g>
        </g>
    </g>
</svg>