<?xml version="1.0" encoding="UTF-8"?>
<svg width="11px" height="12px" viewBox="0 0 11 12" version="1.1" xmlns="http://www.w3.org/2000/svg" xmlns:xlink="http://www.w3.org/1999/xlink">
    <!-- Generator: Sketch 50.2 (55047) - http://www.bohemiancoding.com/sketch -->
    <title>账号</title>
    <desc>Created with Sketch.</desc>
    <defs></defs>
    <g id="Design" stroke="none" stroke-width="1" fill="none" fill-rule="evenodd">
        <g id="首页" transform="translate(-589.000000, -352.000000)" fill="#BCBCBC" fill-rule="nonzero">
            <g id="账号" transform="translate(589.000000, 352.000000)">
                <path d="M2.88695652,5.21895652 C3.76170988,6.0936619 5.07722909,6.35532053 6.2201211,5.88192766 C7.3630131,5.40853479 8.10821922,4.29331111 8.10826885,3.05625697 C8.10831848,1.81920283 7.36320184,0.703919354 6.22034783,0.230434783 C5.48504348,-0.0740869565 4.61478261,-0.0740869565 3.87947826,0.230434783 C2.93588277,0.621508747 2.24972436,1.4577279 2.05040706,2.45951825 C1.85108975,3.4613086 2.16491321,4.49648524 2.88695652,5.21895652 Z M7.50052174,6.81426087 L2.59895652,6.81426087 C1.17286957,6.81426087 0.0128695652,7.97443478 0.0128695652,9.40052174 C0.0128695652,10.8266087 1.17304348,11.9866087 2.59895652,11.9866087 L7.50069565,11.9866087 C8.92678261,11.9866087 10.0869565,10.8266087 10.0869565,9.40052174 C10.0869565,7.97443478 8.92695652,6.81426087 7.50069565,6.81426087 L7.50052174,6.81426087 Z" id="Shape"></path>
            </g>
        </g>
    </g>
</svg>